<svg xmlns="http://www.w3.org/2000/svg" viewBox="0 0 800 796" class="brMapSvg" role="img" aria-label="Mapa do Brasil por estados">
  <defs>
    <pattern id="grainPattern" patternUnits="userSpaceOnUse" x="-60" y="-40" width="920" height="860">
      <image href="assets/img/graos-de-ouro.jpg" x="-60" y="-40" width="920" height="860" preserveAspectRatio="xMinYMin slice" opacity="0.78"/>
    </pattern>
    <filter id="softShadow" x="-20%" y="-20%" width="140%" height="140%">
      <feDropShadow dx="0" dy="6" stdDeviation="10" flood-opacity="0.22"/>
    </filter>
  </defs>
  <style>
    .uf{fill:#3c596b; stroke:#9fbcce; stroke-width:2.4; transition:fill .2s ease, transform .2s ease, stroke .2s ease; cursor:pointer;}
    .uf:hover{fill:#2f855a; stroke:#eefef4; transform:translateY(-1px);}
    .uf.active{fill:#22c55e; stroke:#ffffff;}
  </style>


<g class="brStates">
<path id="BR-AC" data-uf="AC" d="M 23.34,259.60 L 90.84,279.56 L 159.17,312.07 L 163.20,313.66 L 125.50,337.17 L 85.14,335.06 L 85.44,305.72 L 73.05,316.00 L 55.50,315.17 L 51.39,304.44 L 35.13,303.98 L 41.05,297.40 L 29.27,282.74 L 24.71,274.57 L 24.64,272.08 L 20.08,268.67 L 20.00,263.83 L 23.72,263.83 L 23.34,259.60 Z"></path>
<path id="BR-AL" data-uf="AL" d="M 774.15,293.93 L 769.66,301.03 L 762.06,309.50 L 756.06,317.29 L 751.27,321.45 L 751.35,322.35 L 749.37,325.23 L 748.30,323.41 L 746.10,323.64 L 746.02,321.90 L 744.66,320.54 L 743.52,321.14 L 738.65,317.44 L 738.50,315.78 L 718.36,305.95 L 713.87,302.47 L 722.31,293.40 L 738.65,303.76 L 739.72,301.56 L 743.67,301.64 L 745.11,303.07 L 757.81,293.32 L 762.75,294.61 L 766.24,292.72 L 774.15,293.93 Z"></path>
<path id="BR-AM" data-uf="AM" d="M 225.45,79.13 L 238.22,86.01 L 247.34,128.12 L 242.70,136.74 L 262.46,152.16 L 260.41,137.72 L 268.62,130.99 L 277.89,138.86 L 285.57,134.92 L 283.37,131.52 L 290.21,117.00 L 312.55,116.48 L 313.09,129.63 L 323.80,143.92 L 361.96,165.39 L 322.13,253.63 L 326.84,263.61 L 322.05,292.04 L 261.32,292.49 L 249.62,291.88 L 235.94,276.54 L 222.03,276.61 L 208.27,294.68 L 196.11,294.91 L 196.26,304.81 L 168.90,304.44 L 159.17,312.07 L 90.84,279.56 L 23.34,259.60 L 25.40,252.27 L 36.11,247.20 L 33.61,238.88 L 42.57,220.81 L 68.42,207.28 L 97.91,205.16 L 108.55,141.27 L 96.62,125.25 L 96.31,110.43 L 113.64,110.05 L 113.57,101.35 L 100.26,101.50 L 100.26,88.42 L 131.88,88.20 L 146.40,79.73 L 153.32,86.38 L 153.70,99.16 L 183.72,109.22 L 225.45,79.13 Z"></path>
<path id="BR-AP" data-uf="AP" d="M 482.66,109.14 L 452.03,135.91 L 453.02,143.54 L 439.87,144.53 L 415.24,97.50 L 400.95,88.05 L 392.97,88.05 L 390.39,73.91 L 394.64,73.68 L 398.90,79.28 L 406.57,79.73 L 411.14,76.10 L 420.56,76.33 L 422.54,79.35 L 429.53,79.35 L 458.64,35.35 L 469.81,76.93 L 488.13,90.39 L 487.67,102.03 L 482.66,109.14 Z"></path>
<path id="BR-BA" data-uf="BA" d="M 713.87,302.47 L 718.36,305.95 L 718.66,314.87 L 721.78,315.40 L 723.53,322.13 L 721.47,323.04 L 721.47,329.31 L 717.98,330.37 L 717.37,329.23 L 714.41,329.39 L 713.11,331.50 L 718.13,341.79 L 728.62,347.00 L 711.06,374.22 L 707.26,371.73 L 700.04,378.46 L 697.76,407.87 L 701.64,429.26 L 693.05,456.48 L 696.16,464.35 L 693.58,468.28 L 688.94,470.32 L 685.90,477.20 L 674.05,469.49 L 675.57,465.63 L 667.36,458.52 L 669.79,449.30 L 674.27,448.62 L 680.20,431.91 L 597.66,397.74 L 562.24,416.86 L 562.47,409.76 L 558.13,372.94 L 551.98,341.18 L 566.57,320.54 L 577.59,331.58 L 599.18,327.95 L 608.22,316.31 L 604.65,306.93 L 611.80,301.41 L 625.78,308.22 L 635.97,301.18 L 642.96,301.18 L 655.04,289.54 L 665.15,299.07 L 665.00,304.36 L 671.77,304.51 L 690.84,286.97 L 705.28,295.89 L 708.02,293.32 L 712.51,296.95 L 711.21,299.22 L 713.87,302.47 Z"></path>
<path id="BR-CE" data-uf="CE" d="M 731.81,215.14 L 725.35,217.71 L 707.18,245.01 L 703.38,256.50 L 707.79,263.08 L 704.45,272.00 L 696.32,272.00 L 685.52,263.91 L 668.80,265.12 L 671.84,253.02 L 665.91,250.60 L 659.22,216.81 L 653.75,178.25 L 644.02,174.47 L 653.75,178.25 L 679.06,176.81 L 709.08,193.44 L 720.26,205.77 L 731.74,212.12 L 731.81,215.14 Z"></path>
<path id="BR-DF" data-uf="DF" d="M 537.54,432.89 L 518.76,432.89 L 518.69,422.38 L 537.54,422.46 L 537.54,432.89 Z"></path>
<path id="BR-ES" data-uf="ES" d="M 661.43,534.89 L 646.07,531.26 L 646.15,525.66 L 642.81,524.76 L 644.71,513.49 L 652.46,513.19 L 661.96,495.27 L 658.84,491.19 L 661.20,485.67 L 656.11,477.58 L 660.59,473.57 L 664.47,473.72 L 667.51,469.56 L 674.05,469.49 L 685.90,477.20 L 683.24,485.82 L 685.37,496.55 L 683.24,502.38 L 677.92,506.08 L 675.03,514.62 L 668.50,525.89 L 664.32,526.12 L 661.43,534.89 Z"></path>
<path id="BR-GO" data-uf="GO" d="M 474.07,369.84 L 498.32,377.17 L 558.13,372.94 L 562.47,409.76 L 546.66,412.25 L 547.26,429.49 L 537.54,432.89 L 537.54,422.46 L 518.69,422.38 L 518.76,432.89 L 537.54,432.89 L 538.07,471.83 L 526.74,480.98 L 519.14,477.35 L 504.40,477.50 L 496.95,483.85 L 479.31,484.31 L 467.08,499.28 L 430.29,482.87 L 425.50,470.62 L 422.31,463.67 L 426.94,448.17 L 441.31,429.79 L 449.75,428.43 L 454.00,413.92 L 464.04,412.25 L 474.07,369.84 Z"></path>
<path id="BR-MA" data-uf="MA" d="M 513.59,221.87 L 532.90,209.93 L 545.82,190.95 L 561.55,141.88 L 586.86,151.33 L 593.55,167.81 L 601.69,170.53 L 610.58,164.86 L 630.80,174.77 L 644.10,174.62 L 621.45,203.88 L 622.74,251.06 L 611.95,255.37 L 609.06,250.60 L 600.09,253.85 L 590.67,263.76 L 573.56,270.49 L 563.76,293.47 L 566.57,320.54 L 555.32,317.82 L 551.67,309.88 L 542.70,296.35 L 547.42,283.95 L 553.65,282.96 L 552.59,274.42 L 542.70,276.69 L 530.47,262.02 L 536.40,243.12 L 533.81,228.00 L 513.59,221.87 Z"></path>
<path id="BR-MG" data-uf="MG" d="M 680.20,431.91 L 674.27,448.62 L 669.79,449.30 L 667.36,458.52 L 675.57,465.63 L 674.05,469.49 L 667.51,469.56 L 664.47,473.72 L 660.59,473.57 L 656.11,477.58 L 661.20,485.67 L 658.84,491.19 L 661.96,495.27 L 652.46,513.19 L 644.71,513.49 L 642.81,524.76 L 641.36,528.16 L 638.78,528.08 L 633.61,541.09 L 634.67,542.83 L 619.55,550.01 L 614.46,547.82 L 587.24,556.13 L 556.31,565.81 L 534.80,509.26 L 466.54,507.97 L 467.08,499.28 L 479.31,484.31 L 496.95,483.85 L 504.40,477.50 L 519.14,477.35 L 526.74,480.98 L 538.07,471.83 L 537.54,432.89 L 547.26,429.49 L 546.66,412.25 L 562.47,409.76 L 562.24,416.86 L 597.73,397.96 L 680.20,431.91 Z"></path>
<path id="BR-MS" data-uf="MS" d="M 425.50,470.62 L 430.29,482.87 L 467.08,499.28 L 466.54,507.97 L 437.66,551.67 L 425.27,559.61 L 415.70,566.34 L 408.63,576.09 L 402.93,587.74 L 394.34,585.09 L 381.57,586.98 L 372.14,553.49 L 331.02,552.28 L 331.56,528.23 L 325.25,508.65 L 340.37,469.26 L 355.50,457.77 L 369.63,454.44 L 386.28,463.89 L 405.66,463.44 L 413.80,454.97 L 413.72,463.82 L 406.42,470.70 L 425.50,470.62 Z"></path>
<path id="BR-MT" data-uf="MT" d="M 278.20,387.30 L 294.39,360.23 L 294.54,335.13 L 261.17,334.75 L 261.32,292.49 L 322.05,292.04 L 326.84,263.61 L 354.21,304.06 L 480.99,312.53 L 471.03,343.45 L 474.07,369.84 L 464.04,412.25 L 454.00,413.92 L 449.75,428.43 L 441.31,429.79 L 426.94,448.17 L 422.31,463.67 L 425.50,470.62 L 406.42,470.70 L 413.72,463.82 L 413.80,454.97 L 405.66,463.44 L 386.28,463.89 L 369.63,454.44 L 355.50,457.77 L 340.37,469.26 L 323.88,456.48 L 323.88,437.05 L 287.93,437.13 L 287.70,422.31 L 280.10,413.84 L 286.48,414.14 L 286.10,404.77 L 283.59,393.50 L 278.20,387.30 Z"></path>
<path id="BR-PA" data-uf="PA" d="M 561.55,141.88 L 545.82,190.95 L 532.90,209.93 L 513.59,221.87 L 509.56,225.50 L 520.43,229.96 L 509.87,252.12 L 504.09,253.63 L 497.33,268.90 L 501.58,273.36 L 480.99,312.53 L 354.21,304.06 L 326.84,263.61 L 322.13,253.63 L 361.96,165.39 L 323.80,143.92 L 313.09,129.63 L 312.55,116.48 L 313.01,96.89 L 346.76,84.64 L 368.57,83.89 L 367.73,73.76 L 390.39,73.91 L 392.97,88.05 L 400.95,88.05 L 415.24,97.50 L 439.87,144.53 L 453.02,143.54 L 452.03,135.91 L 482.66,109.14 L 485.70,115.49 L 493.00,114.89 L 515.65,126.76 L 516.03,131.52 L 525.15,134.70 L 531.00,130.16 L 561.55,141.88 Z"></path>
<path id="BR-PB" data-uf="PB" d="M 777.04,247.50 L 780.00,268.07 L 775.21,265.12 L 767.23,266.41 L 766.09,270.11 L 757.05,273.51 L 752.33,272.76 L 745.72,275.40 L 745.19,279.56 L 737.82,282.89 L 731.43,275.55 L 738.42,266.33 L 732.34,262.62 L 718.89,271.55 L 704.45,272.00 L 707.79,263.08 L 703.38,256.50 L 707.18,245.01 L 716.15,247.58 L 732.57,237.83 L 734.40,240.77 L 728.39,251.21 L 743.44,257.11 L 749.75,247.20 L 777.04,247.50 Z"></path>
<path id="BR-PE" data-uf="PE" d="M 780.00,268.07 L 774.15,293.93 L 766.24,292.72 L 762.75,294.61 L 757.81,293.32 L 745.11,303.07 L 743.67,301.64 L 739.72,301.56 L 738.65,303.76 L 722.31,293.40 L 713.87,302.47 L 711.21,299.22 L 712.51,296.95 L 708.02,293.32 L 705.28,295.89 L 690.84,286.97 L 671.77,304.51 L 665.00,304.36 L 665.15,299.07 L 655.04,289.54 L 668.80,278.05 L 668.72,273.36 L 665.46,272.15 L 665.53,266.48 L 668.80,265.12 L 685.52,263.91 L 696.32,272.00 L 704.45,272.00 L 718.89,271.55 L 732.34,262.62 L 738.42,266.33 L 731.43,275.55 L 737.82,282.89 L 745.19,279.56 L 745.72,275.40 L 752.33,272.76 L 757.05,273.51 L 766.09,270.11 L 767.23,266.41 L 775.21,265.12 L 780.00,268.07 Z"></path>
<path id="BR-PI" data-uf="PI" d="M 644.10,174.62 L 653.75,178.25 L 659.22,216.81 L 665.91,250.60 L 671.84,253.02 L 668.80,265.12 L 665.53,266.48 L 665.46,272.15 L 668.72,273.36 L 668.80,278.05 L 655.04,289.54 L 642.96,301.18 L 635.97,301.18 L 625.78,308.22 L 611.80,301.41 L 604.65,306.93 L 608.22,316.31 L 599.18,327.95 L 577.59,331.58 L 566.57,320.54 L 563.76,293.47 L 573.56,270.49 L 590.67,263.76 L 600.09,253.85 L 609.06,250.60 L 611.95,255.37 L 622.74,251.06 L 621.45,203.88 L 644.10,174.62 Z"></path>
<path id="BR-PR" data-uf="PR" d="M 425.27,559.61 L 489.95,568.76 L 500.82,598.10 L 523.70,610.95 L 512.53,625.47 L 501.43,625.47 L 494.59,629.85 L 487.22,626.22 L 473.99,626.37 L 471.33,630.23 L 460.84,631.67 L 458.56,638.09 L 414.71,630.91 L 408.70,618.89 L 396.31,617.98 L 402.93,587.74 L 408.63,576.09 L 415.70,566.34 L 425.27,559.61 Z"></path>
<path id="BR-RJ" data-uf="RJ" d="M 587.40,574.66 L 585.04,567.78 L 597.43,563.32 L 595.83,559.54 L 590.59,561.20 L 587.24,556.13 L 614.46,547.82 L 619.55,550.01 L 634.67,542.83 L 633.61,541.09 L 638.78,528.08 L 641.36,528.16 L 642.81,524.76 L 646.15,525.66 L 646.07,531.26 L 661.43,534.89 L 658.69,539.05 L 660.44,548.12 L 655.65,550.84 L 649.19,552.96 L 640.83,559.91 L 643.11,562.41 L 640.07,566.64 L 620.76,567.10 L 609.89,568.76 L 604.80,566.19 L 590.13,571.25 L 590.97,573.60 L 587.40,574.66 Z"></path>
<path id="BR-RN" data-uf="RN" d="M 731.81,215.14 L 744.05,220.28 L 757.88,219.60 L 769.43,222.93 L 777.04,247.50 L 749.75,247.20 L 743.44,257.11 L 728.39,251.21 L 734.40,240.77 L 732.57,237.83 L 716.15,247.58 L 707.18,245.01 L 725.35,217.71 L 731.81,215.14 Z"></path>
<path id="BR-RO" data-uf="RO" d="M 159.17,312.07 L 168.90,304.44 L 196.26,304.81 L 196.11,294.91 L 208.27,294.68 L 222.03,276.61 L 235.94,276.54 L 249.62,291.88 L 261.32,292.49 L 261.17,334.75 L 294.54,335.13 L 294.39,360.23 L 278.20,387.30 L 271.21,383.60 L 255.09,384.20 L 249.09,377.40 L 217.24,362.50 L 209.56,365.45 L 188.20,348.89 L 188.28,313.81 L 163.20,313.66 L 159.17,312.07 Z"></path>
<path id="BR-RR" data-uf="RR" d="M 313.01,96.89 L 312.55,116.48 L 290.21,117.00 L 283.37,131.52 L 285.57,134.92 L 277.89,138.86 L 268.62,130.99 L 260.41,137.72 L 262.46,152.16 L 242.70,136.74 L 247.34,128.12 L 238.22,86.01 L 225.45,79.13 L 225.14,74.97 L 213.82,75.04 L 209.49,52.51 L 197.10,39.88 L 198.85,38.45 L 202.57,41.70 L 211.46,42.23 L 213.97,46.01 L 229.48,45.33 L 233.35,51.76 L 238.60,50.24 L 236.39,44.80 L 246.05,40.87 L 251.60,42.30 L 277.29,29.07 L 277.06,20.30 L 290.97,20.00 L 291.42,33.99 L 298.49,36.71 L 298.80,48.05 L 291.96,63.63 L 292.34,75.95 L 296.21,77.31 L 296.29,85.48 L 306.09,95.31 L 313.01,96.89 Z"></path>
<path id="BR-RS" data-uf="RS" d="M 410.91,648.53 L 451.04,653.29 L 474.30,671.74 L 488.28,675.37 L 484.86,685.42 L 490.03,689.96 L 479.77,712.87 L 469.66,726.33 L 462.14,732.90 L 445.26,744.85 L 445.19,739.03 L 448.91,739.03 L 458.03,732.60 L 472.09,713.32 L 462.29,711.43 L 452.94,727.46 L 441.39,738.95 L 444.43,740.69 L 444.43,745.23 L 439.94,750.37 L 435.99,761.71 L 431.73,766.93 L 419.80,776.00 L 416.76,773.43 L 419.04,766.62 L 426.79,757.32 L 430.97,759.82 L 435.00,751.50 L 431.58,749.31 L 423.30,754.53 L 378.15,720.88 L 369.48,724.74 L 341.89,704.32 L 375.94,667.20 L 410.91,648.53 Z"></path>
<path id="BR-SC" data-uf="SC" d="M 414.71,630.91 L 458.56,638.09 L 460.84,631.67 L 471.33,630.23 L 473.99,626.37 L 487.22,626.22 L 494.59,629.85 L 501.43,625.47 L 512.53,625.47 L 514.81,630.38 L 511.09,639.60 L 512.99,652.23 L 512.83,661.76 L 509.72,674.46 L 490.03,689.96 L 484.86,685.42 L 488.28,675.37 L 474.30,671.74 L 451.04,653.29 L 410.91,648.53 L 414.71,630.91 Z"></path>
<path id="BR-SE" data-uf="SE" d="M 718.36,305.95 L 738.50,315.78 L 738.65,317.44 L 743.52,321.14 L 744.66,320.54 L 746.02,321.90 L 746.10,323.64 L 748.30,323.41 L 749.37,325.23 L 748.84,326.06 L 746.71,326.06 L 739.41,331.05 L 728.62,347.00 L 718.13,341.79 L 713.11,331.50 L 714.41,329.39 L 717.37,329.23 L 717.98,330.37 L 721.47,329.31 L 721.47,323.04 L 723.53,322.13 L 721.78,315.40 L 718.66,314.87 L 718.36,305.95 Z"></path>
<path id="BR-SP" data-uf="SP" d="M 587.40,574.66 L 574.10,580.25 L 575.16,582.14 L 572.42,583.96 L 567.94,582.52 L 562.39,583.35 L 546.66,591.29 L 523.70,610.95 L 500.82,598.10 L 489.95,568.76 L 425.27,559.61 L 437.66,551.67 L 466.54,507.97 L 534.80,509.26 L 556.31,565.81 L 587.24,556.13 L 590.59,561.20 L 595.83,559.54 L 597.43,563.32 L 585.04,567.78 L 587.40,574.66 Z"></path>
<path id="BR-TO" data-uf="TO" d="M 566.57,320.54 L 551.98,341.18 L 558.13,372.94 L 498.32,377.17 L 474.07,369.84 L 471.03,343.45 L 480.99,312.53 L 501.58,273.36 L 497.33,268.90 L 504.09,253.63 L 509.87,252.12 L 520.43,229.96 L 509.56,225.50 L 513.59,221.87 L 533.81,228.00 L 536.40,243.12 L 530.47,262.02 L 542.70,276.69 L 552.59,274.42 L 553.65,282.96 L 547.42,283.95 L 542.70,296.35 L 551.67,309.88 L 555.32,317.82 L 566.57,320.54 Z"></path>
</g></svg>