<?xml version="1.0" encoding="UTF-8"?>
<!DOCTYPE svg PUBLIC "-//W3C//DTD SVG 1.1//EN" "http://www.w3.org/Graphics/SVG/1.1/DTD/svg11.dtd">
<!-- Creator: CorelDRAW -->
<svg xmlns="http://www.w3.org/2000/svg" xml:space="preserve" width="297mm" height="210mm" version="1.1" style="shape-rendering:geometricPrecision; text-rendering:geometricPrecision; image-rendering:optimizeQuality; fill-rule:evenodd; clip-rule:evenodd"
viewBox="0 0 29700 21000"
 xmlns:xlink="http://www.w3.org/1999/xlink"
 xmlns:xodm="http://www.corel.com/coreldraw/odm/2003">
 <defs>
  <style type="text/css">
   <![CDATA[
    .fil3 {fill:none}
    .fil2 {fill:#009933}
    .fil0 {fill:#201E1E;fill-rule:nonzero}
    .fil1 {fill:#009933;fill-rule:nonzero}
    .fil4 {fill:white;fill-rule:nonzero}
   ]]>
  </style>
     <clipPath id="id0">
      <path d="M3610.76 11657.49c-2861.68,1181.41 3463.85,7355.53 3813.52,3960.64 0.04,-0.42 0.13,-0.88 0.13,-1.3l-0.04 -3750.25 1.09 -236.12 -3636.97 -1.01c-0.39,0.01 0.23,-0.01 -0.16,0.01 -81.48,4.22 -142.3,13.47 -177.57,28.03z"/>
     </clipPath>
      <clipPath id="id1">
       <path d="M3610.76 11657.49c-2861.68,1181.41 3463.85,7355.53 3813.52,3960.64 0.04,-0.42 0.13,-0.88 0.13,-1.3l-0.04 -3750.25 1.09 -236.12 -3636.97 -1.01c-0.39,0.01 0.23,-0.01 -0.16,0.01 -81.48,4.22 -142.3,13.47 -177.57,28.03z"/>
      </clipPath>
      <clipPath id="id2">
       <path d="M3610.76 11657.49c-2861.68,1181.41 3463.85,7355.53 3813.52,3960.64 0.04,-0.42 0.13,-0.88 0.13,-1.3l-0.04 -3750.25 1.09 -236.12 -3636.97 -1.01c-0.39,0.01 0.23,-0.01 -0.16,0.01 -81.48,4.22 -142.3,13.47 -177.57,28.03z"/>
      </clipPath>
     <clipPath id="id3">
      <path d="M3610.76 9707.55c-2861.68,-1181.41 3463.85,-7355.54 3813.52,-3960.64 0.04,0.42 0.13,0.87 0.13,1.29l-0.04 3750.26 1.09 236.11 -3636.97 1.02c-0.39,-0.01 0.23,0.01 -0.16,-0.02 -81.48,-4.21 -142.3,-13.46 -177.57,-28.02z"/>
     </clipPath>
      <clipPath id="id4">
       <path d="M3610.76 9707.55c-2861.68,-1181.41 3463.85,-7355.54 3813.52,-3960.64 0.04,0.42 0.13,0.87 0.13,1.29l-0.04 3750.26 1.09 236.11 -3636.97 1.02c-0.39,-0.01 0.23,0.01 -0.16,-0.02 -81.48,-4.21 -142.3,-13.46 -177.57,-28.02z"/>
      </clipPath>
      <clipPath id="id5">
       <path d="M3610.76 9707.55c-2861.68,-1181.41 3463.85,-7355.54 3813.52,-3960.64 0.04,0.42 0.13,0.87 0.13,1.29l-0.04 3750.26 1.09 236.11 -3636.97 1.02c-0.39,-0.01 0.23,0.01 -0.16,-0.02 -81.48,-4.21 -142.3,-13.46 -177.57,-28.02z"/>
      </clipPath>
     <clipPath id="id6">
      <path d="M13175.94 11657.49c2861.68,1181.41 -3463.84,7355.53 -3813.52,3960.64 -0.04,-0.42 -0.13,-0.88 -0.13,-1.3l0.04 -3750.25 -1.09 -236.12 3636.97 -1.01c0.39,0.01 -0.22,-0.01 0.17,0.01 81.47,4.22 142.3,13.47 177.56,28.03z"/>
     </clipPath>
      <clipPath id="id7">
       <path d="M13175.94 11657.49c2861.68,1181.41 -3463.84,7355.53 -3813.52,3960.64 -0.04,-0.42 -0.13,-0.88 -0.13,-1.3l0.04 -3750.25 -1.09 -236.12 3636.97 -1.01c0.39,0.01 -0.22,-0.01 0.17,0.01 81.47,4.22 142.3,13.47 177.56,28.03z"/>
      </clipPath>
      <clipPath id="id8">
       <path d="M13175.94 11657.49c2861.68,1181.41 -3463.84,7355.53 -3813.52,3960.64 -0.04,-0.42 -0.13,-0.88 -0.13,-1.3l0.04 -3750.25 -1.09 -236.12 3636.97 -1.01c0.39,0.01 -0.22,-0.01 0.17,0.01 81.47,4.22 142.3,13.47 177.56,28.03z"/>
      </clipPath>
 </defs>
 <g id="Layer_x0020_1">
  <metadata id="CorelCorpID_0Corel-Layer"/>
  <g id="_2281809256976">
   <path class="fil0" d="M26717.86 13431.49c24.85,-13.35 50.5,-24.66 76.92,-33.9 62.65,-21.91 128.69,-32.95 198.12,-32.95 57.76,0 112.25,7.21 163.5,21.53 77.32,21.6 142.73,59.32 196.35,112.92 2.74,2.73 5.41,5.51 8.04,8.3 39.61,41.51 71.44,89.77 95.32,144.86 24.16,55.72 38.27,114.17 42.15,175.35 3.03,47.95 -1.11,103.63 -12.5,167.01 -8.68,48.35 -20.3,99.39 -34.87,153.05 -2.01,7.52 -4.27,14.91 -6.7,22.18l-64.77 233.68 0.51 0.16c-12.53,46.16 -19.76,73.31 -21.45,80.66 -2.32,10.03 -4.44,21.7 -6.35,35.02 -0.68,4.73 -1.46,9.42 -2.29,14.09l-0.29 5.2c-0.62,11.8 -0.84,21.08 -0.66,27.8 5.18,200.28 -143.87,367.09 -332.92,372.58 -3.14,0.1 -6.28,0.14 -9.4,0.14l0 1.29 -133.42 0c-14.11,0 -28.03,-0.92 -41.7,-2.68l-1.04 0.31c-47.08,14.01 -93.03,21.02 -137.81,21.02 -80.19,0 -153.7,-18.93 -220.4,-56.66 -7.85,3.79 -15.78,7.39 -23.76,10.79 -71.9,30.63 -145.56,45.87 -221.06,45.87 -77.43,0 -148.57,-16.01 -213.4,-48.06 -41.96,18.95 -87.63,29.19 -134.48,29.17l0 0.24 -134.72 0c-15.07,0 -29.92,-1.03 -44.48,-3.03l-2.42 0.69c-49.24,13.99 -98.28,20.99 -147.23,20.99 -44.49,0 -89.15,-7.39 -133.87,-22.01 -30.71,-10.04 -59.7,-23.34 -86.93,-39.86 -11.36,5.68 -22.89,10.96 -34.56,15.85 -73.33,30.7 -150.75,46.02 -232.3,46.02 -73.96,0 -143.73,-14.03 -209.36,-42.06 -38,15.1 -78.71,23.19 -120.35,23.17l0 0.24 -47.69 0c-7.85,14.29 -15.37,27.08 -22.56,38.38 -22.24,34.92 -47.64,67.91 -76.09,98.99l-1.6 1.7c-28.74,30.95 -59.47,58.29 -92.16,81.99 -31.79,23.05 -66.55,43.29 -104.25,60.68l-2.76 1.23 0.08 0.19c-39.27,17.77 -82.08,31.27 -128.36,40.33 -43.98,8.61 -85.94,12.98 -125.69,12.98 -87.84,0 -166.96,-15.56 -237.28,-46.51 -105.19,-46.26 -182.81,-121.77 -232.87,-226.2 -7.1,-14.82 -13.51,-29.95 -19.23,-45.39 -5.69,0.18 -11.4,0.28 -17.11,0.28 -67.39,0 -131.96,-13.25 -193.85,-39.84 -9.21,-3.97 -18.29,-8.21 -27.25,-12.75 -44.56,21.87 -93.66,33.72 -144.13,33.7l0 0.24 -134.72 0c-100.09,0 -190.18,-45.34 -252.98,-117.67 -49.52,41.07 -103.43,73.21 -161.64,96.49 -66.53,26.61 -133.87,39.83 -202.02,39.83 -126.13,0 -234.84,-40.6 -326.15,-121.99 -25.07,-22.34 -47.56,-46.76 -67.44,-73.24 -16.63,17.37 -33.88,33.77 -51.76,49.18l0.54 0.69c-52.43,45.42 -109.9,80.56 -172.32,105.53 -66.53,26.61 -133.87,39.83 -202.02,39.83 -76.12,0 -145.89,-14.8 -209.33,-44.41 -39.63,16.61 -82.35,25.53 -126.1,25.52l0 0.24 -125.07 0c-10.88,0 -21.63,-0.57 -32.26,-1.62 -44.11,13.53 -88.14,20.27 -132.08,20.27 -63.99,0 -123.25,-12.28 -177.77,-36.81 -29.76,9.98 -61.32,15.78 -94.08,16.73 -3.14,0.1 -6.27,0.14 -9.39,0.14l0 1.29 -133.42 0c-14.11,0 -28.03,-0.92 -41.7,-2.68l-1.04 0.31c-47.08,14.01 -93.03,21.02 -137.81,21.02 -60.41,0 -117.04,-10.75 -169.82,-32.18 -29.56,8.72 -60.41,13.3 -91.78,13.29l0 0.24 -125.06 0c-10.89,0 -21.65,-0.57 -32.27,-1.62 -44.11,13.53 -88.12,20.27 -132.08,20.27 -69.56,0 -133.51,-14.5 -191.89,-43.49 -39.01,16.02 -80.96,24.62 -123.9,24.6l0 0.24 -134.72 0c-23.94,0 -47.31,-2.61 -69.88,-7.54 -22.27,4.81 -45.13,7.31 -68.28,7.3l0 0.24 -134.73 0c-23.94,0 -47.31,-2.61 -69.87,-7.54 -22.28,4.81 -45.14,7.31 -68.29,7.3l0 0.24 -134.72 0c-44.94,0 -87.86,-9.16 -127.2,-25.77 -64.43,29.62 -130.83,44.42 -199.21,44.42 -42.95,0 -85.19,-6.68 -126.75,-20.08 -9.1,0.78 -18.26,1.19 -27.47,1.19l0 0.24 -125.06 0c-18.11,0 -35.89,-1.5 -53.24,-4.36 -11.57,1.6 -23.33,2.58 -35.26,2.93 -3.13,0.1 -6.27,0.14 -9.39,0.14l0 1.29 -133.42 0c-14.11,0 -28.03,-0.92 -41.7,-2.68l-1.04 0.31c-47.08,14.01 -93.03,21.02 -137.8,21.02 -82.37,0 -157.71,-19.97 -225.87,-59.79 -14.56,7.25 -29.4,13.9 -44.54,19.96 -66.53,26.61 -133.88,39.83 -202.03,39.83 -100.66,0 -190.24,-25.87 -268.72,-77.69 -54.91,37.75 -119.75,58.82 -187.03,58.8l0 0.24 -134.72 0c-13.71,0 -27.22,-0.88 -40.5,-2.53l-0.67 0.19c-49.24,13.99 -98.28,20.99 -147.23,20.99 -44.49,0 -89.15,-7.39 -133.87,-22.01 -30.71,-10.04 -59.7,-23.34 -86.93,-39.86 -11.36,5.68 -22.89,10.96 -34.56,15.85 -73.33,30.7 -150.74,46.02 -232.3,46.02 -68.36,0 -133.13,-11.98 -194.37,-35.93 -28.97,9.44 -59.62,14.93 -91.4,15.85 -3.14,0.1 -6.27,0.14 -9.39,0.14l0 1.29 -133.42 0c-14.11,0 -28.03,-0.92 -41.7,-2.68l-1.04 0.31c-47.08,14.01 -93.03,21.02 -137.8,21.02 -52.14,0 -101.44,-8.01 -147.9,-23.97 -5.39,0.95 -10.82,1.78 -16.31,2.47 -13.53,1.69 -26.97,2.5 -40.27,2.52l0 0.33 -169.76 0c-58,0 -112.63,-15.24 -160.56,-42.13 -48.6,27.09 -103.34,41.91 -159.8,41.89l0 0.24 -142.08 0c-125.81,0 -235.81,-71.63 -295.69,-178.47 -87.05,146.36 -181.37,291.53 -281.75,434.32 -308.89,439.48 -677.25,860.03 -1068.42,1226.41 -408.73,382.82 -854.39,715.88 -1298.64,962.25 -432.25,239.72 -866.06,398.91 -1268.74,445.45 -619.14,71.55 -1166.04,-54.71 -1582.94,-435.23 -224.34,-204.76 -404.39,-478.85 -529.88,-830.43 -125.5,351.57 -305.54,625.67 -529.88,830.43 -416.9,380.52 -963.8,506.78 -1582.94,435.23 -402.69,-46.54 -836.5,-205.73 -1268.75,-445.45 -444.25,-246.37 -889.91,-579.44 -1298.62,-962.25 -391.18,-366.39 -759.54,-786.94 -1068.44,-1226.42 -296.91,-422.42 -540.9,-865.5 -700.48,-1299.29l0 -0.01c-254.35,-691.39 -327.9,-1363.38 -147.3,-1952.89 156.78,-511.75 496.08,-946.82 1062.22,-1261.59 -566.13,-314.77 -905.44,-749.83 -1062.22,-1261.59 -180.6,-589.52 -107.05,-1261.51 147.3,-1952.89l0.06 -0.15c159.58,-433.75 403.55,-876.77 700.42,-1299.15 308.9,-439.48 677.26,-860.03 1068.44,-1226.42 408.71,-382.82 854.37,-715.88 1298.62,-962.25 432.25,-239.72 866.06,-398.91 1268.75,-445.45 619.13,-71.56 1166.01,54.7 1582.92,435.2 353.38,322.52 596.9,817.04 690.33,1515.56 15.93,-35.38 32.44,-70.37 49.52,-104.97l0.57 -1.11 -0.57 -0.31c130.73,-262.66 292.42,-494.84 485.22,-696.51 190.94,-199.73 412.58,-368.22 665.05,-505.47l1.62 -0.85 -0.28 -0.57c200.22,-107.74 432.07,-187.74 695.35,-240.16 254.86,-50.76 536.58,-76.04 844.98,-76.04 599.86,0 1059.77,65.67 1379.7,197 168.08,69.3 320.84,156.74 458.41,262.5 138.43,106.44 263.41,232.54 375.09,378.5 108.09,141.42 202.73,301.67 283.71,480.73 78.93,174.54 143.96,364.11 194.91,568.67 48.18,193.99 -61.2,392.64 -244.33,443.69 -9.89,2.76 -19.8,5 -29.69,6.8l-1056.59 212.01 1067.43 0c18.29,0 36.24,1.52 53.75,4.44 24.58,-175.51 167.39,-310.18 339.91,-310.18l774.72 0c92.64,0 180.64,9.69 263.92,29.2 93.14,21.82 175.98,57.24 248.39,106.41l0.82 -1.38c77.15,51.86 144.61,122.46 202.31,211.94 47.55,73.73 87.95,160.27 121.18,259.67 8.47,25.24 16.35,51.17 23.62,77.76l45 -249.49c-62.3,-65.89 -100.84,-156.98 -100.84,-257.6 0,-8.28 0.29,-16.48 0.8,-24.62l-0.25 -19.28c-1.07,-90.67 -1.6,12.67 -1.6,-45.86 0,-96.44 6.86,-185.65 20.53,-267.59 15.34,-92.09 39.93,-175.71 73.62,-250.81 39.97,-89.1 89.82,-161.78 149.43,-217.82 89.4,-84.04 190.86,-126.23 304.26,-126.23 36.5,0 74.95,5.26 115.58,15.75 31.5,8.14 61.24,19.04 89.39,32.68 49.87,-29.99 107.49,-47.08 168.74,-47.05l0 -1.38 162.16 0c189.8,0 343.66,162.99 343.66,364.05 0,8.49 -0.3,16.91 -0.84,25.26l0.27 22.47 0.01 0c1.08,97.32 1.61,-14.61 1.61,48.6 0,95.04 -6.6,184.66 -19.74,268.79 -15.11,96.78 -38.46,180.98 -69.92,252.57 -5.71,12.98 -12.06,25.41 -18.97,37.32 -5.25,10.44 -10.64,20.62 -16.18,30.53 3.43,14.28 6.08,28.9 7.87,43.79l100.41 556.39c31.99,-109.45 69.82,-209.67 113.48,-300.63 93.9,-195.64 212.02,-346.64 354.34,-453.07 154.87,-115.81 329.31,-173.64 523.32,-173.64 195.32,0 370.62,56.36 525.86,169.07l0.58 0.42 -0.05 -746.17 -1.34 0c0,-22.35 0.65,3.94 1.85,-49.67 0.52,-23.35 0.99,-40.06 1.42,-52.7 1.2,-33.05 1.96,-52.38 2.22,-57.1l2.87 -51.5c0.97,-12.42 2.51,-24.64 4.6,-36.63 1.43,-12.91 2.85,-23.24 4.26,-30.97 19.91,-109.56 71.93,-192.7 158.41,-250.6 56.8,-37.88 120.06,-55.89 182.57,-55.83l0 -1.05 237.01 0 1.04 -8.1c0.38,-3.13 0.82,-6.26 1.27,-9.36 2.74,-23.8 7.3,-66.31 13.93,-130.06 7.53,-72.52 12.52,-122.59 14.72,-148.2l0.14 -1.41 -0.14 -0.01c6.5,-72.36 10.75,-120.25 13.02,-146.61 14.68,-170.99 -9.85,108.46 11.09,-146.55 0.92,-11.31 2.34,-22.45 4.2,-33.4 1.21,-11.9 2.13,-20.22 2.72,-24.44 2.5,-17.85 5.69,-36.54 9.72,-56.35 1.43,-7.14 3.07,-14.18 4.87,-21.13 4.5,-20.87 8.91,-37.75 13.25,-50.62 33.64,-99.76 93.94,-171.73 183.05,-216.43 47.35,-23.67 97.22,-34.84 146.33,-34.8l0 -0.75 397.26 0c54.74,0 106.48,13.59 152.41,37.7 75.59,37.77 132.9,101.07 170.42,191.76 14.98,36.24 25.7,75.31 31.84,117.55 1.11,7.79 1.94,15.56 2.57,23.3 1.88,14.86 3.26,28.84 4.15,42.14 0.87,13.05 1.3,35.78 1.31,68.44l0.08 1215.18c22.53,-117.37 48.16,-234.95 76.83,-352.74 35.21,-144.7 70.96,-272.93 107.22,-385.09 2.96,-9.28 6.26,-18.34 9.85,-27.18 38.49,-115.13 79.89,-219.54 124.13,-313.19 51.48,-108.97 106.62,-203.92 165.37,-284.82 3.61,-4.97 7.33,-9.8 11.13,-14.51 70.26,-92.49 147.89,-165.33 232.98,-218.18 102.69,-63.79 212.33,-96.93 328.96,-98.94 1.79,-0.03 3.58,-0.02 5.37,-0.02l0 -1.4 225.55 0c69.95,0 140.02,14.26 210.15,43.37 58.52,24.28 116.23,59.77 173.05,106.9 52.1,43.03 99.66,92.67 142.97,148.68 35.44,45.86 73.48,104.5 114.04,175.33 0.64,1.12 1.24,2.25 1.86,3.36l0.82 -0.51c33.73,60.3 67.91,130.96 102.54,212.72 31.7,74.89 62.45,156.99 92.13,246.75l0.41 -0.16c27,80.81 54.9,176.97 83.74,288.74 20.17,78.18 38.7,155.64 55.63,232.47 8.64,-38.08 17.6,-76.19 26.87,-114.32 35.21,-144.7 70.97,-272.93 107.23,-385.09 2.96,-9.28 6.26,-18.34 9.85,-27.18 38.49,-115.13 79.89,-219.54 124.13,-313.19 51.48,-108.97 106.62,-203.92 165.36,-284.82 3.62,-4.97 7.34,-9.8 11.14,-14.51 70.26,-92.49 147.89,-165.33 232.98,-218.18 102.69,-63.79 212.33,-96.93 328.96,-98.94 1.79,-0.03 3.58,-0.02 5.36,-0.02l0 -1.4 225.56 0c69.95,0 140.01,14.26 210.15,43.37 58.52,24.28 116.23,59.77 173.05,106.9 52.1,43.03 99.66,92.67 142.97,148.68 35.44,45.86 73.48,104.5 114.04,175.33 0.64,1.12 1.24,2.25 1.86,3.36l0.82 -0.51c33.72,60.3 67.91,130.96 102.54,212.72 31.7,74.89 62.45,156.99 92.13,246.75l0.41 -0.16c27,80.81 54.9,176.97 83.74,288.74 20.17,78.18 38.7,155.64 55.63,232.47 8.64,-38.08 17.6,-76.19 26.87,-114.32 35.21,-144.7 70.97,-272.93 107.23,-385.09 2.96,-9.28 6.26,-18.34 9.85,-27.18 38.49,-115.13 79.89,-219.54 124.13,-313.19 51.48,-108.97 106.62,-203.92 165.36,-284.82 3.62,-4.97 7.34,-9.8 11.14,-14.51 70.25,-92.49 147.89,-165.33 232.98,-218.18 102.69,-63.79 212.33,-96.93 328.95,-98.94 1.8,-0.03 3.59,-0.02 5.37,-0.02l0 -1.4 225.55 0c69.95,0 140.03,14.26 210.16,43.37 58.52,24.27 116.23,59.77 173.05,106.9 52.09,43.02 99.66,92.67 142.96,148.68 35.45,45.85 73.49,104.5 114.05,175.33 0.63,1.12 1.24,2.25 1.86,3.36l0.82 -0.51c33.72,60.3 67.9,130.96 102.54,212.72 31.7,74.89 62.45,156.99 92.12,246.75l0.42 -0.16c27,80.81 54.9,176.97 83.74,288.74 28.72,111.33 54.13,221.2 76.29,329.89l0.27 -0.07c22.11,108.2 44.18,233.7 66.17,375.97 22.7,146.91 42.05,288.92 58.09,425.96 17.29,149.74 32.8,308.8 46.46,477.7 12.22,151.02 23.56,326.08 34.02,526.01 9.11,174.29 16.21,368.5 21.31,582.22 4.79,200.63 7.24,413.81 7.38,639.23 -0.11,216.68 -2.46,422.13 -7,616.38 -4.85,207.6 -11.64,397.75 -20.33,570.55 -9.95,196.7 -20.68,370.04 -32.15,519.44 -12.52,163.04 -27.15,321.56 -43.83,475.05 -16.52,152.06 -34.16,295.26 -52.9,429.27 -17.96,128.43 -38.34,256.14 -61.18,383.07 -22.11,123.87 -44.58,238.15 -67.45,343.09 -25.04,114.85 -49.47,216.42 -73.34,305 -1.36,5.03 -2.83,9.99 -4.36,14.91 -23.82,88.9 -48,171.49 -72.43,247.97 -27.28,85.38 -54.95,163.5 -82.86,234.58 -29.43,74.58 -57.34,140.23 -83.59,196.06 -26.55,56.47 -56.95,113.44 -91.55,170.97l-0.62 1.01 0.62 0.42c-30.11,49.82 -60.63,95.28 -91.68,135.96 -33.91,44.41 -69.34,83.61 -106.52,117.17 36.19,47 61.51,103.77 71.9,165.99 57.28,6.75 111.23,22.84 161.86,48.2 9.4,4.72 18.59,9.71 27.56,14.98zm-1873.26 -1637.31c-23.82,108.34 -47.09,204.62 -69.85,289.09 -1.35,5.03 -2.83,9.99 -4.36,14.91 -23.82,88.9 -48,171.49 -72.43,247.97 -27.28,85.38 -54.94,163.5 -82.85,234.58 -29.43,74.58 -57.35,140.23 -83.6,196.06 -26.55,56.47 -56.95,113.44 -91.55,170.97l-0.61 1.01 0.61 0.42c-30.11,49.82 -60.63,95.28 -91.68,135.96 -36.64,47.98 -75.03,89.87 -115.51,125.15l-0.67 0.56 0.67 0.86c-41.54,36 -85.15,65.77 -131.45,89.05 -64.25,32.3 -129.17,49.19 -195.27,49.89 1.16,5.37 2.21,10.79 3.14,16.26 83.2,7.77 159.14,35.55 227.81,83.33 5.19,-3.34 10.41,-6.58 15.66,-9.74 84.1,-50.53 171,-75.87 260.68,-75.87 47.03,0 91.36,6.56 132.97,19.65 5.89,-0.32 11.8,-0.49 17.73,-0.49l0 -0.24 25.42 0 85.59 -154.27c63.67,-115.03 177.93,-179.14 295.33,-179.25l0 -1.35 151.1 0c160.16,0 294.74,116.05 332.85,273.12 17.75,-18.23 37.25,-34.33 58.12,-48.06l36.62 -27.56 -5.49 -3.55c-88.1,-57.54 -168.98,-137.1 -242.67,-238.65 -63.88,-87.82 -122.96,-191.43 -177.36,-310.33 -49.93,-109.12 -97.39,-234.85 -142.43,-376.64 -1.95,-6.16 -3.72,-12.33 -5.34,-18.52 -43.76,-140.88 -82.09,-284.45 -114.95,-430.38 -5.46,-24.24 -10.88,-48.89 -16.23,-73.94zm-5867.65 -1557.56c-57.45,45.72 -128.85,72.82 -206.24,72.82l-6261.71 0c-128.07,41.26 -263.55,75.38 -406.41,102.4l810.19 -0.22 0 -0.01 71.7 -3.37c14.49,-0.67 28.81,-0.36 42.9,0.86l0.06 -0.86 38.03 3.37c3.9,0.34 7.78,0.78 11.64,1.25 44.35,2.39 75.56,4.4 93.18,6 36.37,3.32 70.71,7.51 102.79,12.57 51.3,8.1 105.33,19.99 162.01,35.75l1.25 0.36 0.09 -0.36c51.21,14.24 102.98,32.1 155.19,53.64 726.11,299.76 1160.42,761.01 1364.34,1322.51 137.16,377.65 164.63,791.71 102.76,1224.81l271.08 0c55.78,0 108.49,4.96 158.1,14.84 71.93,14.3 134.99,41.04 189.18,80.05 64.03,46.12 113.58,105.92 148.54,179.32 3.55,7.46 6.93,15.01 10.16,22.66 7.13,-0.24 14.3,-0.37 21.51,-0.37 57.9,0 112.44,7.22 163.62,21.56 36.59,10.25 70.5,24.1 101.75,41.51 14.66,-7.49 29.63,-14.33 44.92,-20.51 70.24,-28.36 144.42,-42.56 222.55,-42.56 42.61,0 83.66,4.28 123.12,12.77 27.21,-42.19 62.25,-77.3 102.33,-103.66l152.43 -114.71c154.21,-116.23 368.19,-78.03 477.91,85.32 25.22,37.55 42.73,78.44 52.87,120.57 4.87,-0.19 9.74,-0.29 14.61,-0.29 56.56,0 110.81,11.26 162.85,33.78 58.51,-22.51 117.89,-33.78 178.13,-33.78 96.17,0 182.7,25.35 259.57,76 29.93,-17.4 61.03,-31.76 93.31,-43.05 62.66,-21.91 128.69,-32.95 198.12,-32.95 28.04,0 55.31,1.7 81.82,5.08l10.06 -37.08c42.98,-160 180.62,-264.35 330.24,-264.26l0 -0.24 21.46 0c-2.76,-11.17 -5.17,-22.64 -7.2,-34.41 -4.37,-25.28 -7.63,-52.2 -9.57,-80.47l-0.19 0.02c-0.64,-8.85 -1.62,-29.11 -3.07,-64.44 -1.58,-38.59 -2.4,-60.92 -2.4,-65.79l1.34 0 -0.12 -1811.07 0.02 -1.42 -0.02 0c0.26,-38.27 0.92,-63.58 1.92,-75.93 2.17,-26.79 6.54,-55.86 12.92,-86.03l0.74 -3.27c5.54,-26.62 12.31,-51 20.24,-72.68 56.63,-154.73 160.35,-237.31 313.4,-241.4l-0.02 -294.63zm-8546.57 175.68c-31.16,-6.4 -62.02,-13.2 -92.57,-20.41 -278.4,-65.71 -527.13,-165.38 -746.31,-298.97l-0.25 0.46c-221.02,-133.78 -417.52,-301.39 -589.48,-502.61 -167.11,-195.57 -309.39,-421.68 -426.83,-678.14l-0.01 581.06 1.1 236.11c1.24,336.66 -126.32,641.85 -333.57,863.11 -29.63,31.64 -60.91,61.56 -93.68,89.61 32.77,28.06 64.05,57.97 93.68,89.6 56.97,60.82 107.89,127.99 151.8,200.4 43.91,-72.4 94.84,-139.58 151.8,-200.4 206.9,-220.9 493.78,-358.2 811.58,-359.52l1.34 0.01 0 -1.43 3.17 0 0 1.42 1068.23 -0.3zm277.75 -4305.69c-70.22,92.83 -124.95,220.29 -164.08,382.77 -44.01,182.73 -66.08,404.36 -66.08,665.32 0,281.41 22.33,517.1 66.86,707.07 38.94,166.12 93.69,294.32 164.15,384.58 4.46,5.71 8.69,11.53 12.77,17.43 64.87,79.03 141.41,138.9 229.51,179.49 98.48,45.38 217.02,68.13 355.5,68.13 72.28,0 139.2,-5.36 200.57,-15.96 63.62,-10.98 126.87,-27.87 189.47,-50.5 65.8,-23.61 136.88,-55.7 212.98,-96.24 14.91,-7.95 29.99,-16.19 45.23,-24.73l-648.25 0c-189.8,0 -343.66,-162.99 -343.66,-364.05l0 -1186.58c0,-201.06 153.86,-364.05 343.66,-364.05l607.55 0c-45.45,-44.28 -79.96,-101.86 -97.62,-168.39 -21.05,-70.31 -47.59,-130.34 -79.51,-180.07 -29.24,-45.56 -65.7,-85.1 -109.26,-118.58 -3.12,-2.4 -6.18,-4.86 -9.2,-7.34 -38.16,-27.96 -83.51,-49.87 -135.88,-65.69 -63.34,-19.14 -137.06,-28.71 -220.91,-28.71 -122.25,0 -228.6,22.18 -319.02,66.52 -88.28,43.3 -166.55,109.83 -234.78,199.58zm11921.69 5687.57c-23.82,108.34 -47.09,204.62 -69.85,289.09 -1.35,5.03 -2.83,9.99 -4.36,14.91 -23.82,88.9 -48,171.49 -72.43,247.97 -27.28,85.38 -54.94,163.5 -82.85,234.58 -29.43,74.58 -57.35,140.23 -83.6,196.06 -26.55,56.47 -56.95,113.44 -91.55,170.97l-0.61 1.01 0.61 0.42c-30.11,49.82 -60.63,95.28 -91.68,135.96 -36.63,47.98 -75.03,89.87 -115.51,125.15l-0.67 0.56 0.67 0.86c-17.4,15.08 -35.17,29.07 -53.34,41.94 19.35,36.37 32.96,76.61 39.57,119.36 78.33,14.67 149.31,48.61 212.95,101.83 33.74,28.23 63.16,60.26 88.29,96.11 50.16,-54.23 103.03,-97.63 158.56,-130.2 8.98,-5.3 18.11,-10.09 27.33,-14.44 78.24,-41.1 158.09,-61.68 239.49,-61.68 115.83,0 217.65,36.76 305.48,110.21 8.65,7.23 17,14.72 25.07,22.45l44.69 -164.66c19.58,-72.9 58.83,-134.24 109.9,-179.42 -45.52,-42.91 -88.8,-92.66 -129.85,-149.23 -63.88,-87.82 -122.96,-191.43 -177.36,-310.33 -49.93,-109.12 -97.39,-234.85 -142.43,-376.64 -1.95,-6.16 -3.72,-12.33 -5.34,-18.52 -43.76,-140.88 -82.09,-284.45 -114.95,-430.38 -5.46,-24.24 -10.88,-48.89 -16.23,-73.94zm-1417.9 1502.01c-33.23,-14.78 -65.86,-32.63 -97.9,-53.55 -88.1,-57.54 -168.98,-137.1 -242.66,-238.65 -46.83,-64.36 -91.07,-137.22 -132.78,-218.36l0 84.15 1.35 0c0,18.25 -0.87,43.87 -2.56,76.44 -1.65,31.85 -4.68,59.87 -9,83.88 -0.5,2.83 -1.04,5.66 -1.6,8.47l0.26 0.06c-6.09,30.11 -14.78,58.49 -25.83,84.93 81.23,53.97 139.63,142.91 156.4,246.9 26.12,3.59 51.49,8.83 76.12,15.71 41.73,11.66 79.99,28.01 114.8,49.03 45.27,-26.26 91.68,-45.2 139.2,-56.81l12.41 -45.75c3.37,-12.5 7.31,-24.66 11.79,-36.45z"/>
   <g>
    <path class="fil1" d="M3319.49 10505.76c-1329.28,-548.77 -1509.05,-1674.74 -1055.75,-2906.9 303.73,-825.6 948.67,-1703.42 1676.29,-2384.93 755.22,-707.37 1636.61,-1232.56 2376.74,-1318.1 1005.93,-116.26 1761.05,357.22 1909.73,1742.97 4.37,33.34 8.41,67.35 8.41,109.41l-1.91 0c0,15.82 -0.43,31.55 -1.25,47.19l-0.05 3699.71 1.1 236.11c1.75,472.33 -358.29,856.74 -804.17,858.59l-3.16 -0.03 0 0.03 -3565.41 0.99c-23.58,2.18 -47.44,3.37 -71.57,3.37l-0.03 0 -0.05 0 -0.05 0 -38.02 -3.37c-77.07,-3.97 -139.57,-9.63 -186.13,-16.98 -85.1,-13.43 -167.01,-36 -244.72,-68.06zm524.23 1980.25c-183.55,118.15 -179.91,372.37 -72.96,663.06 208.74,567.4 687.19,1203.67 1239.38,1720.87 524.57,491.32 1079.47,849.5 1477.6,895.51 59.8,6.92 108.78,-52.6 129.34,-211.72l-0.04 -3068.26 -2757.4 -0.77c-5.29,0.49 -10.59,0.93 -15.92,1.31zm-1579.98 1280.17c-453.3,-1232.16 -273.53,-2358.14 1055.75,-2906.9 77.71,-32.06 159.62,-54.63 244.72,-68.07 46.56,-7.34 109.06,-13 186.13,-16.97l38.02 -3.37 0.05 0 0.05 0 0.03 0c24.13,0 47.99,1.18 71.57,3.37l3565.41 0.99 0 0.03 3.16 -0.03c445.88,1.85 805.92,386.25 804.17,858.58l-1.1 236.12 0.05 3699.71c0.82,15.64 1.25,31.37 1.25,47.19l1.91 0c0,41.16 -4.04,75.87 -8.4,109.31 -148.66,1385.83 -903.78,1859.33 -1909.74,1743.07 -740.13,-85.55 -1621.52,-610.73 -2376.74,-1318.1 -727.62,-681.51 -1372.56,-1559.33 -1676.29,-2384.93zm4353.34 1835.71c-0.57,6.08 -1.09,11.22 -1.55,14.94l1.55 0 0 -14.94zm6850.14 -4742.61c1329.26,548.76 1509.04,1674.73 1055.74,2906.9 -303.72,825.59 -948.67,1703.42 -1676.28,2384.93 -755.24,707.37 -1636.63,1232.55 -2376.75,1318.1 -1005.96,116.26 -1761.08,-357.24 -1909.74,-1743.07 -4.36,-33.44 -8.39,-68.15 -8.39,-109.31l1.9 0c0.01,-15.82 0.44,-31.55 1.26,-47.19l0.04 -3699.71 -1.1 -236.12c-1.74,-472.33 358.3,-856.73 804.17,-858.58l3.17 0.03 0 -0.03 3565.4 -0.99c23.59,-2.19 47.45,-3.37 71.57,-3.37l0.03 0 0.05 0 0.06 0 38.02 3.37c77.06,3.97 139.57,9.63 186.13,16.97 85.09,13.44 166.99,36 244.72,68.07zm-451.28 2289.79c106.95,-290.69 110.59,-544.91 -72.96,-663.06 -5.32,-0.38 -10.63,-0.82 -15.92,-1.31l-2757.4 0.77 -0.03 3068.26c20.55,159.13 69.54,218.64 129.33,211.72 398.13,-46.01 953.03,-404.18 1477.61,-895.51 552.19,-517.2 1030.63,-1153.47 1239.37,-1720.87zm-2846.31 2467.76l1.55 0c-0.46,-3.72 -0.99,-8.86 -1.55,-14.94l0 14.94z"/>
    <path class="fil2" d="M3610.76 11657.49c-2861.68,1181.41 3463.85,7355.53 3813.52,3960.64 0.04,-0.42 0.13,-0.88 0.13,-1.3l-0.04 -3750.25 1.09 -236.12 -3636.97 -1.01c-0.39,0.01 0.23,-0.01 -0.16,0.01 -81.48,4.22 -142.3,13.47 -177.57,28.03z"/>
    <g style="clip-path:url(#id0)">
     <g>
     </g>
     <g style="clip-path:url(#id1)">
      <image x="2136.63" y="10546.53" width="8659.96" height="6861.95" xlink:href="logo grão 1000 corel_Images\logo grão 1000 corel_ImgID1.png"/>
     </g>
     <g style="clip-path:url(#id2)">
     </g>
    </g>
    <path class="fil3" d="M3610.76 11657.49c-2861.68,1181.41 3463.85,7355.53 3813.52,3960.64 0.04,-0.42 0.13,-0.88 0.13,-1.3l-0.04 -3750.25 1.09 -236.12 -3636.97 -1.01c-0.39,0.01 0.23,-0.01 -0.16,0.01 -81.48,4.22 -142.3,13.47 -177.57,28.03z"/>
    <path class="fil1" d="M6617.08 5748.21l-1.51 0c0.45,3.67 0.96,8.66 1.51,14.52l0 -14.52z"/>
    <path class="fil1" d="M3770.76 8215.97c-106.95,290.69 -110.59,544.91 72.96,663.06 5.33,0.38 10.63,0.82 15.92,1.31l2757.4 -0.77 0.04 -3068.26c-20.56,-159.13 -69.54,-218.64 -129.34,-211.73 -398.13,46.02 -953.03,404.19 -1477.6,895.52 -552.19,517.2 -1030.64,1153.46 -1239.38,1720.87z"/>
    <path class="fil2" d="M3610.76 9707.55c-2861.68,-1181.41 3463.85,-7355.54 3813.52,-3960.64 0.04,0.42 0.13,0.87 0.13,1.29l-0.04 3750.26 1.09 236.11 -3636.97 1.02c-0.39,-0.01 0.23,0.01 -0.16,-0.02 -81.48,-4.21 -142.3,-13.46 -177.57,-28.02z"/>
    <g style="clip-path:url(#id3)">
     <g>
     </g>
     <g style="clip-path:url(#id4)">
      <image x="1630.08" y="3890.36" width="12512.93" height="7739.98" xlink:href="logo grão 1000 corel_Images\logo grão 1000 corel_ImgID2.png"/>
     </g>
     <g style="clip-path:url(#id5)">
     </g>
    </g>
    <path class="fil3" d="M3610.76 9707.55c-2861.68,-1181.41 3463.85,-7355.54 3813.52,-3960.64 0.04,0.42 0.13,0.87 0.13,1.29l-0.04 3750.26 1.09 236.11 -3636.97 1.02c-0.39,-0.01 0.23,0.01 -0.16,-0.02 -81.48,-4.21 -142.3,-13.46 -177.57,-28.02z"/>
    <path class="fil2" d="M13175.94 11657.49c2861.68,1181.41 -3463.84,7355.53 -3813.52,3960.64 -0.04,-0.42 -0.13,-0.88 -0.13,-1.3l0.04 -3750.25 -1.09 -236.12 3636.97 -1.01c0.39,0.01 -0.22,-0.01 0.17,0.01 81.47,4.22 142.3,13.47 177.56,28.03z"/>
    <g style="clip-path:url(#id6)">
     <g>
     </g>
     <g style="clip-path:url(#id7)">
      <image x="6403.48" y="9804.2" width="11519.41" height="8103.43" xlink:href="logo grão 1000 corel_Images\logo grão 1000 corel_ImgID3.png"/>
     </g>
     <g style="clip-path:url(#id8)">
     </g>
    </g>
    <path class="fil3" d="M13175.94 11657.49c2861.68,1181.41 -3463.84,7355.53 -3813.52,3960.64 -0.04,-0.42 -0.13,-0.88 -0.13,-1.3l0.04 -3750.25 -1.09 -236.12 3636.97 -1.01c0.39,0.01 -0.22,-0.01 0.17,0.01 81.47,4.22 142.3,13.47 177.56,28.03z"/>
    <path class="fil4" d="M14555.81 14576.41l310.63 -1144.47 299.07 0c75.13,0 126.99,10.39 155.47,30.9 28.64,20.51 45.92,57.01 52.13,109.49 6.15,52.75 0.19,112.69 -18.18,180.36 -23.35,86.05 -57.98,156.91 -104.1,212.85 -46.12,55.95 -101.82,91.12 -167.35,105.77 22.72,29.04 39.26,61 49.59,95.9 10.5,34.9 20.5,96.97 30.07,185.95l25.18 223.25 -169.75 0 -33.99 -249.89c-12.43,-88.71 -22.29,-144.66 -29.58,-167.83 -7.21,-22.92 -17.11,-38.9 -29.86,-47.42 -12.9,-8.53 -35.65,-12.79 -68.39,-12.79l-28.81 0 -129.72 477.93 -142.41 0zm321.58 -660.15l105.1 0c68.1,0 111.8,-4.79 131.35,-14.12 19.39,-9.32 37.23,-25.58 52.94,-48.48 15.87,-22.91 28.43,-51.69 37.76,-86.06 10.49,-38.62 12.49,-69.52 6.4,-93.5 -6.18,-23.71 -19.97,-38.63 -41.23,-44.75 -10.89,-2.67 -45.07,-4 -102.53,-4l-110.82 0 -78.97 290.91zm642.66 86.31l-112.24 -35.16c35.72,-80.98 75.73,-140.93 119.84,-179.82 44.11,-38.9 99.33,-58.34 165.46,-58.34 60.07,0 101.82,11.45 124.99,34.63 23.01,23.18 35.85,52.48 38.11,88.18 2.26,35.69 -9.4,100.96 -35.28,196.33l-71.38 255.75c-19.75,72.73 -32.22,126.55 -37.36,161.18 -5.15,34.63 -7.18,71.66 -6.09,111.09l-133.58 0c0.47,-14.39 1.83,-35.7 4.42,-63.94 1.42,-13.05 2.09,-21.58 2.19,-25.57 -32.89,36.76 -64.89,64.2 -96.07,82.58 -31.18,18.38 -61.54,27.7 -91.17,27.7 -52.21,0 -87.18,-23.17 -104.72,-69.52 -17.61,-46.09 -16.76,-104.7 2.47,-175.57 12.65,-46.62 30.89,-88.44 54.61,-125.2 23.66,-36.51 50.48,-64.74 80.63,-84.19 30.01,-19.45 70.32,-36.5 120.94,-51.15 68.07,-19.18 116.69,-37.29 145.4,-53.81l6.01 -22.12c11.57,-42.62 13.42,-72.98 5.65,-91.37 -8.02,-18.12 -29.79,-27.17 -65.31,-27.17 -24.06,0 -44.82,7.72 -62.51,23.44 -17.78,15.45 -36.03,42.89 -55.01,82.05zm132.57 177.43c-19.73,9.32 -50.1,20.51 -91.13,33.56 -40.87,13.06 -68.89,25.85 -83.68,38.1 -23.07,20.51 -38.86,46.09 -47.32,77.26 -8.39,30.9 -8.51,57.27 -0.5,79.65 8,22.38 22.81,33.57 44.58,33.57 24.23,0 51.01,-13.05 80.12,-38.9 21.63,-19.98 38.95,-43.95 51.83,-72.73 8.5,-18.64 19.99,-54.34 34.23,-106.82l11.87 -43.69zm172.97 163.03l144.65 -33.56c-5.77,42.36 -2.9,74.6 8.85,96.44 11.51,22.11 33.27,33.03 64.87,33.03 34.86,0 63.87,-10.39 87.19,-31.17 15.77,-14.65 27,-34.36 33.66,-58.87 4.48,-16.52 4.97,-30.37 1.55,-41.29 -3.89,-10.39 -16.28,-20.25 -37.14,-29.04 -98.22,-39.16 -157.45,-74.86 -177.84,-107.1 -28.21,-45.02 -31.43,-107.36 -9.81,-187.01 19.6,-72.2 53.53,-132.67 101.7,-181.69 48.17,-49.02 108.84,-73.52 182.02,-73.52 69.73,0 116.56,18.64 140.39,55.67 23.77,37.3 32.28,92.18 25.31,164.9l-137.11 38.37c3.41,-32.5 -0.27,-57.54 -10.79,-74.86 -10.52,-17.32 -29.98,-25.84 -58.3,-25.84 -35.69,0 -63.39,7.99 -83.36,24.24 -13.41,11.46 -22.54,26.38 -27.46,44.49 -4.26,15.71 -3.46,29.04 2.58,39.96 8.3,14.65 44.8,35.16 109.6,61.81 64.8,26.64 106.23,59.13 124.22,97.76 17.77,38.9 17.03,93.51 -1.92,163.31 -20.61,75.93 -57.88,141.46 -111.82,196.08 -53.78,54.61 -119.01,82.04 -195.63,82.04 -69.4,0 -118.19,-22.9 -146.42,-68.46 -28.07,-45.56 -37.81,-107.36 -28.99,-185.69zm988.97 -596.2l-47.28 174.23 -92.33 0 -91.18 335.93c-18.51,68.2 -28.46,107.89 -29.7,119.08 -1.24,11.19 0.16,20.52 4.53,27.97 4.26,7.2 10.78,10.92 19.78,10.92 12.61,0 32.49,-6.92 60.06,-21.04l-34.98 170.5c-37.2,21.84 -75.52,32.76 -115.13,32.76 -24.23,0 -44.19,-6.65 -60.06,-19.97 -15.87,-13.32 -25.41,-30.64 -28.7,-51.69 -3.38,-21.31 -1.86,-49.82 4.37,-86.05 4.16,-25.57 16.71,-77.25 37.9,-155.31l98.55 -363.1 -61.88 0 47.3 -174.23 61.88 0 44.68 -164.64 169.7 -129.48 -79.83 294.12 92.32 0zm-2.2 829.58l-134.56 0 225.16 -829.58 124.74 0 -31.96 117.75c36.55,-55.68 65.78,-92.18 87.67,-109.5 21.88,-17.31 43.68,-25.83 65.44,-25.83 30.78,0 56.65,13.85 77.69,41.29l-93.67 191.28c-16.24,-23.98 -34.1,-35.97 -53.59,-35.97 -18.98,0 -37.34,8.52 -54.99,25.31 -17.72,17.05 -36.28,47.41 -55.81,91.64 -19.53,44.22 -48.46,136.93 -86.71,277.86l-69.41 255.75zm619.36 -262.14l124.59 36.76c-38.96,80.19 -82.86,141.19 -131.44,183.28 -48.67,41.83 -101.04,62.87 -156.86,62.87 -88.56,0 -141.4,-47.15 -158.21,-141.45 -13.01,-75.66 -3.99,-171.03 27.32,-286.39 37.31,-137.46 88.69,-245.35 153.84,-323.14 65.22,-78.06 131.59,-116.95 199.04,-116.95 75.63,0 124.31,40.75 146.06,122.27 21.58,81.52 8.62,206.47 -39.04,374.84l-336.89 0c-16.66,64.99 -19.6,115.61 -8.64,151.84 10.8,36.23 31.74,54.35 62.51,54.35 21.12,0 41.33,-9.32 60.64,-27.97 19.46,-18.65 38.44,-48.75 57.08,-90.31zm68.17 -222.19c16.29,-63.66 19.47,-112.15 9.29,-145.19 -10.12,-33.29 -28.88,-49.81 -56.38,-49.81 -29.31,0 -58.3,17.58 -86.93,52.48 -28.62,34.9 -50.9,82.58 -66.84,142.52l200.86 0zm368.22 -89.51l-112.25 -35.16c35.73,-80.98 75.74,-140.93 119.85,-179.82 44.11,-38.9 99.33,-58.34 165.46,-58.34 60.07,0 101.82,11.45 124.99,34.63 23.01,23.18 35.85,52.48 38.11,88.18 2.26,35.69 -9.4,100.96 -35.29,196.33l-71.37 255.75c-19.75,72.73 -32.23,126.55 -37.36,161.18 -5.15,34.63 -7.18,71.66 -6.1,111.09l-133.57 0c0.47,-14.39 1.83,-35.7 4.42,-63.94 1.42,-13.05 2.09,-21.58 2.19,-25.57 -32.89,36.76 -64.89,64.2 -96.07,82.58 -31.19,18.38 -61.54,27.7 -91.17,27.7 -52.22,0 -87.18,-23.17 -104.72,-69.52 -17.61,-46.09 -16.77,-104.7 2.47,-175.57 12.65,-46.62 30.88,-88.44 54.61,-125.2 23.65,-36.51 50.47,-64.74 80.63,-84.19 30,-19.45 70.32,-36.5 120.94,-51.15 68.07,-19.18 116.69,-37.29 145.4,-53.81l6.01 -22.12c11.57,-42.62 13.42,-72.98 5.65,-91.37 -8.02,-18.12 -29.79,-27.17 -65.31,-27.17 -24.07,0 -44.82,7.72 -62.51,23.44 -17.78,15.45 -36.04,42.89 -55.01,82.05zm132.56 177.43c-19.72,9.32 -50.09,20.51 -91.13,33.56 -40.86,13.06 -68.88,25.85 -83.67,38.1 -23.08,20.51 -38.87,46.09 -47.32,77.26 -8.39,30.9 -8.51,57.27 -0.51,79.65 8.01,22.38 22.82,33.57 44.58,33.57 24.24,0 51.02,-13.05 80.14,-38.9 21.63,-19.98 38.94,-43.95 51.81,-72.73 8.51,-18.64 20,-54.34 34.24,-106.82l11.86 -43.69zm151.86 396.41l310.64 -1144.47 134.56 0 -112.08 412.92c62.47,-76.98 122.07,-115.61 179.03,-115.61 62.05,0 103.38,36.49 124.09,109.75 20.71,73.26 12.45,178.5 -24.79,315.69 -38.47,141.72 -88.74,250.95 -150.98,327.68 -62.17,76.46 -122.99,114.81 -182.09,114.81 -29.14,0 -54.46,-12.25 -76.2,-36.49 -21.67,-24.51 -36.51,-59.67 -44.39,-106.03l-33.04 121.75 -124.75 0zm249.52 -430.78c-23.35,86.05 -32.36,149.99 -26.8,191.01 7.5,58.61 30.49,87.92 69.28,87.92 29.8,0 60.81,-20.79 93.21,-62.34 32.23,-41.56 60.5,-107.1 84.72,-196.34 25.81,-95.11 33.76,-163.57 24.06,-205.66 -9.69,-42.09 -30.99,-63.14 -64.05,-63.14 -32.42,0 -64.83,20.51 -97.41,61.54 -32.58,41.02 -60.3,103.36 -83.01,187.01zm611.86 -510.69l55.1 -203 134.56 0 -55.1 203 -134.56 0zm-255.54 941.47l225.17 -829.58 134.56 0 -225.16 829.58 -134.57 0zm272.89 0l310.63 -1144.47 134.56 0 -310.63 1144.47 -134.56 0zm528.41 -941.47l55.1 -203 134.56 0 -55.1 203 -134.56 0zm-255.53 941.47l225.17 -829.58 134.55 0 -225.16 829.58 -134.56 0zm740.4 0l-124.73 0 33.04 -121.75c-33.66,47.42 -68,82.85 -102.83,106.82 -34.75,23.72 -66.65,35.7 -95.46,35.7 -58.76,0 -98.61,-38.35 -119.62,-115.35 -20.85,-76.99 -12.73,-184.08 24.66,-321.81 38.17,-140.66 87.53,-247.76 148.18,-321.02 60.65,-73.26 121.95,-109.75 184.16,-109.75 56.96,0 95.91,38.63 116.6,115.61l112.07 -412.92 134.56 0 -310.63 1144.47zm-242.56 -430.78c-24.07,88.72 -33.97,152.92 -29.85,192.61 6.16,57.54 28.63,86.32 67.59,86.32 30.94,0 63.15,-21.58 96.47,-64.74 33.49,-43.16 61.72,-107.36 85,-193.14 25.96,-95.64 34.14,-164.37 24.44,-206.46 -9.69,-42.09 -30.82,-63.14 -63.72,-63.14 -31.92,0 -64.25,20.78 -97.13,62.33 -32.73,41.57 -60.38,103.64 -82.8,186.22zm630.92 -143.06l-112.24 -35.16c35.73,-80.98 75.73,-140.93 119.84,-179.82 44.12,-38.9 99.33,-58.34 165.46,-58.34 60.07,0 101.82,11.45 125,34.63 23.01,23.18 35.84,52.48 38.11,88.18 2.25,35.69 -9.41,100.96 -35.29,196.33l-71.38 255.75c-19.74,72.73 -32.22,126.55 -37.36,161.18 -5.15,34.63 -7.17,71.66 -6.09,111.09l-133.57 0c0.46,-14.39 1.82,-35.7 4.42,-63.94 1.41,-13.05 2.08,-21.58 2.19,-25.57 -32.9,36.76 -64.9,64.2 -96.08,82.58 -31.18,18.38 -61.54,27.7 -91.16,27.7 -52.22,0 -87.19,-23.17 -104.73,-69.52 -17.61,-46.09 -16.76,-104.7 2.48,-175.57 12.65,-46.62 30.88,-88.44 54.6,-125.2 23.67,-36.51 50.48,-64.74 80.64,-84.19 30,-19.45 70.31,-36.5 120.94,-51.15 68.06,-19.18 116.69,-37.29 145.4,-53.81l6 -22.12c11.57,-42.62 13.43,-72.98 5.65,-91.37 -8.02,-18.12 -29.79,-27.17 -65.31,-27.17 -24.06,0 -44.82,7.72 -62.51,23.44 -17.78,15.45 -36.03,42.89 -55.01,82.05zm132.57 177.43c-19.73,9.32 -50.1,20.51 -91.13,33.56 -40.87,13.06 -68.89,25.85 -83.68,38.1 -23.07,20.51 -38.85,46.09 -47.32,77.26 -8.38,30.9 -8.5,57.27 -0.5,79.65 8,22.38 22.81,33.57 44.58,33.57 24.23,0 51.02,-13.05 80.13,-38.9 21.63,-19.98 38.94,-43.95 51.82,-72.73 8.51,-18.64 20,-54.34 34.24,-106.82l11.86 -43.69zm625.27 396.41l-124.74 0 33.05 -121.75c-33.66,47.42 -67.99,82.85 -102.82,106.82 -34.76,23.72 -66.66,35.7 -95.47,35.7 -58.76,0 -98.61,-38.35 -119.62,-115.35 -20.85,-76.99 -12.73,-184.08 24.65,-321.81 38.18,-140.66 87.55,-247.76 148.19,-321.02 60.64,-73.26 121.96,-109.75 184.16,-109.75 56.96,0 95.91,38.63 116.6,115.61l112.08 -412.92 134.56 0 -310.64 1144.47zm-242.56 -430.78c-24.07,88.72 -33.97,152.92 -29.85,192.61 6.16,57.54 28.63,86.32 67.59,86.32 30.94,0 63.15,-21.58 96.47,-64.74 33.49,-43.16 61.72,-107.36 85,-193.14 25.96,-95.64 34.13,-164.37 24.44,-206.46 -9.69,-42.09 -30.82,-63.14 -63.73,-63.14 -31.91,0 -64.24,20.78 -97.12,62.33 -32.73,41.57 -60.38,103.64 -82.8,186.22zm740.79 168.64l124.59 36.76c-38.96,80.19 -82.85,141.19 -131.44,183.28 -48.67,41.83 -101.04,62.87 -156.86,62.87 -88.56,0 -141.4,-47.15 -158.21,-141.45 -13.02,-75.66 -3.99,-171.03 27.32,-286.39 37.31,-137.46 88.69,-245.35 153.84,-323.14 65.22,-78.06 131.6,-116.95 199.04,-116.95 75.63,0 124.32,40.75 146.06,122.27 21.58,81.52 8.62,206.47 -39.04,374.84l-336.89 0c-16.66,64.99 -19.59,115.61 -8.64,151.84 10.8,36.23 31.74,54.35 62.51,54.35 21.13,0 41.33,-9.32 60.64,-27.97 19.46,-18.65 38.44,-48.75 57.08,-90.31zm68.17 -222.19c16.3,-63.66 19.47,-112.15 9.29,-145.19 -10.12,-33.29 -28.88,-49.81 -56.39,-49.81 -29.3,0 -58.3,17.58 -86.92,52.48 -28.62,34.9 -50.9,82.58 -66.84,142.52l200.86 0zm750.97 222.19l124.58 36.76c-38.95,80.19 -82.85,141.19 -131.43,183.28 -48.67,41.83 -101.04,62.87 -156.86,62.87 -88.56,0 -141.4,-47.15 -158.21,-141.45 -13.02,-75.66 -3.99,-171.03 27.32,-286.39 37.3,-137.46 88.69,-245.35 153.84,-323.14 65.22,-78.06 131.59,-116.95 199.03,-116.95 75.63,0 124.32,40.75 146.07,122.27 21.58,81.52 8.62,206.47 -39.04,374.84l-336.89 0c-16.67,64.99 -19.6,115.61 -8.64,151.84 10.79,36.23 31.74,54.35 62.51,54.35 21.12,0 41.33,-9.32 60.63,-27.97 19.47,-18.65 38.45,-48.75 57.09,-90.31zm68.16 -222.19c16.3,-63.66 19.48,-112.15 9.29,-145.19 -10.12,-33.29 -28.87,-49.81 -56.38,-49.81 -29.3,0 -58.3,17.58 -86.92,52.48 -28.63,34.9 -50.9,82.58 -66.84,142.52l200.85 0zm390.08 484.33l308.03 -1134.88 142.43 0 -255.54 941.47 352.6 0 -52.49 193.41 -495.03 0zm678.94 -424.91c19.82,-73 49.94,-143.6 90.55,-211.8 40.68,-68.46 86.05,-120.41 136.24,-156.38 50.2,-35.96 100.13,-54.07 150.06,-54.07 77.1,0 129.06,40.75 156.21,122.27 27.08,81.79 23.71,184.62 -10.13,309.29 -34.13,125.75 -87.28,229.91 -159.29,312.5 -72.18,82.58 -145.92,123.87 -221.38,123.87 -46.66,0 -86.48,-17.31 -119.56,-51.68 -32.9,-34.36 -51.48,-84.71 -55.5,-151.31 -4.1,-66.34 6.91,-147.32 32.8,-242.69zm135.31 11.71c-22.34,82.32 -27.53,145.46 -15.49,189.15 12.13,43.96 35.67,65.81 70.86,65.81 35.03,0 70.43,-21.85 106.1,-65.81 35.59,-43.69 64.82,-107.36 87.46,-190.74 22.05,-81.26 27.09,-143.86 15.21,-187.55 -11.8,-43.95 -35.34,-65.8 -70.37,-65.8 -35.2,0 -70.6,21.85 -106.59,65.8 -35.76,43.69 -64.84,106.82 -87.18,189.14zm353.65 465.95l145.96 30.36c-5.41,29.57 -5.01,49.82 1.12,61.01 8.67,15.72 26.63,23.71 54.13,23.71 35.2,0 63.87,-8.53 86.25,-25.84 14.89,-11.45 28.88,-29.84 41.88,-55.41 9.01,-18.12 20.32,-51.95 33.55,-100.7l33.56 -121.22c-65.11,90.31 -128.4,135.34 -189.95,135.34 -68.43,0 -109.98,-47.16 -124.4,-141.2 -11.25,-74.32 -1.8,-167.03 28.21,-277.59 37.74,-139.06 87.15,-245.09 148.12,-318.35 60.97,-73.26 122.19,-110.02 183.41,-110.02 63.02,0 102.86,45.02 119.34,135.06l31.89 -117.48 125.71 0 -201.88 743.79c-26.53,97.78 -51.33,171.04 -74.4,219.26 -22.98,48.48 -47.17,86.31 -72.69,114.02 -25.29,27.43 -55.12,49.28 -89.27,64.73 -34.22,15.72 -74.13,23.44 -119.81,23.44 -86.42,0 -141.07,-24.24 -164.16,-72.46 -23.02,-48.48 -24.46,-109.49 -4.29,-183.81 1.95,-7.2 4.57,-16.26 7.72,-26.64zm252.26 -484.33c-23.86,87.92 -30.81,152.12 -21.08,192.88 9.89,40.76 30.19,61.27 60.8,61.27 32.73,0 66.28,-21.04 100.22,-62.87 34.11,-41.83 62.17,-103.63 84.45,-185.68 23.28,-85.78 29.76,-149.45 19.26,-191.02 -10.32,-41.55 -32.18,-62.33 -65.42,-62.33 -32.24,0 -64.33,20.51 -96.34,61.27 -31.86,40.76 -59.18,102.84 -81.89,186.48zm374.77 431.58l225.17 -829.58 134.56 0 -225.17 829.58 -134.56 0zm231.65 -936.68l130.12 -233.36 150.28 0 -195.94 233.36 -84.46 0zm56.45 703.3l144.65 -33.56c-5.77,42.36 -2.89,74.6 8.86,96.44 11.51,22.11 33.26,33.03 64.86,33.03 34.86,0 63.87,-10.39 87.2,-31.17 15.76,-14.65 27,-34.36 33.65,-58.87 4.49,-16.52 4.98,-30.37 1.55,-41.29 -3.88,-10.39 -16.28,-20.25 -37.13,-29.04 -98.23,-39.16 -157.45,-74.86 -177.84,-107.1 -28.22,-45.02 -31.43,-107.36 -9.81,-187.01 19.59,-72.2 53.52,-132.67 101.69,-181.69 48.17,-49.02 108.84,-73.52 182.02,-73.52 69.73,0 116.57,18.64 140.4,55.67 23.76,37.3 32.27,92.18 25.31,164.9l-137.12 38.37c3.42,-32.5 -0.26,-57.54 -10.78,-74.86 -10.52,-17.32 -29.98,-25.84 -58.31,-25.84 -35.68,0 -63.38,7.99 -83.35,24.24 -13.41,11.46 -22.55,26.38 -27.46,44.49 -4.27,15.71 -3.46,29.04 2.58,39.96 8.3,14.65 44.8,35.16 109.6,61.81 64.79,26.64 106.23,59.13 124.22,97.76 17.76,38.9 17.02,93.51 -1.93,163.31 -20.6,75.93 -57.87,141.46 -111.82,196.08 -53.78,54.61 -119.01,82.04 -195.62,82.04 -69.41,0 -118.19,-22.9 -146.43,-68.46 -28.06,-45.56 -37.8,-107.36 -28.99,-185.69zm988.98 -596.2l-47.29 174.23 -92.32 0 -91.18 335.93c-18.51,68.2 -28.47,107.89 -29.71,119.08 -1.23,11.19 0.17,20.52 4.53,27.97 4.27,7.2 10.78,10.92 19.78,10.92 12.61,0 32.5,-6.92 60.06,-21.04l-34.97 170.5c-37.2,21.84 -75.53,32.76 -115.14,32.76 -24.22,0 -44.19,-6.65 -60.05,-19.97 -15.87,-13.32 -25.41,-30.64 -28.7,-51.69 -3.38,-21.31 -1.87,-49.82 4.37,-86.05 4.15,-25.57 16.71,-77.25 37.9,-155.31l98.55 -363.1 -61.88 0 47.29 -174.23 61.88 0 44.68 -164.64 169.7 -129.48 -79.82 294.12 92.32 0zm124.66 -111.89l55.1 -203 134.55 0 -55.09 203 -134.56 0zm-255.53 941.47l225.16 -829.58 134.55 0 -225.16 829.58 -134.55 0zm875.17 -583.43l-143 38.36c7.22,-42.89 5.83,-75.12 -4.13,-96.97 -10.02,-21.58 -27.52,-32.5 -52.73,-32.5 -33.55,0 -65.53,18.92 -95.78,56.75 -30.23,37.83 -57.35,100.97 -81.43,189.67 -26.75,98.58 -35.48,168.1 -26.24,208.86 9.23,40.77 30.91,61.02 64.96,61.02 25.53,0 49.74,-11.99 72.38,-35.7 22.81,-23.72 45.33,-64.48 67.8,-122.55l122.62 36.77c-40.65,99.09 -87.33,173.95 -140.02,224.57 -52.7,50.62 -111.79,75.92 -177.43,75.92 -74.32,0 -123.32,-38.35 -146.77,-114.81 -23.54,-76.73 -16.86,-182.75 19.94,-318.35 37.24,-137.2 88.43,-243.77 153.54,-320.22 65.11,-76.46 135.54,-114.55 211.33,-114.55 61.87,0 105.22,21.84 130.09,65.27 24.72,43.41 32.98,109.49 24.87,198.46zm199.89 9.59l-112.24 -35.16c35.73,-80.98 75.73,-140.93 119.85,-179.82 44.11,-38.9 99.32,-58.34 165.46,-58.34 60.07,0 101.81,11.45 124.99,34.63 23.01,23.18 35.84,52.48 38.11,88.18 2.25,35.69 -9.41,100.96 -35.29,196.33l-71.38 255.75c-19.74,72.73 -32.22,126.55 -37.36,161.18 -5.15,34.63 -7.18,71.66 -6.09,111.09l-133.57 0c0.46,-14.39 1.82,-35.7 4.42,-63.94 1.41,-13.05 2.09,-21.58 2.19,-25.57 -32.9,36.76 -64.9,64.2 -96.08,82.58 -31.18,18.38 -61.54,27.7 -91.16,27.7 -52.22,0 -87.18,-23.17 -104.73,-69.52 -17.6,-46.09 -16.76,-104.7 2.47,-175.57 12.66,-46.62 30.89,-88.44 54.62,-125.2 23.66,-36.51 50.47,-64.74 80.63,-84.19 30,-19.45 70.31,-36.5 120.94,-51.15 68.06,-19.18 116.69,-37.29 145.4,-53.81l6 -22.12c11.57,-42.62 13.43,-72.98 5.65,-91.37 -8.01,-18.12 -29.79,-27.17 -65.31,-27.17 -24.06,0 -44.81,7.72 -62.51,23.44 -17.78,15.45 -36.03,42.89 -55.01,82.05zm132.57 177.43c-19.72,9.32 -50.1,20.51 -91.12,33.56 -40.87,13.06 -68.89,25.85 -83.68,38.1 -23.08,20.51 -38.87,46.09 -47.32,77.26 -8.4,30.9 -8.51,57.27 -0.51,79.65 8,22.38 22.81,33.57 44.58,33.57 24.23,0 51.02,-13.05 80.13,-38.9 21.63,-19.98 38.94,-43.95 51.83,-72.73 8.5,-18.64 19.98,-54.34 34.23,-106.82l11.86 -43.69z"/>
    <path class="fil1" d="M14117.19 9601.75l0 -3134.84 774.71 0c143.59,0 253.56,25.54 329.21,77.35 76,51.08 137.29,146.68 183.87,285.32 46.58,139.37 69.69,309.39 69.69,509.34 0,173.67 -17.86,323.99 -53.58,450.23 -35.37,126.97 -84.4,229.13 -147.1,307.94 -39.57,49.61 -94.21,91.21 -163.21,124.04 55.35,38.68 95.62,76.63 120.83,115.3 16.82,25.54 41.69,81 74.25,164.91 32.23,83.92 53.94,148.87 64.8,194.84l225.9 905.57 -525.34 0 -248.32 -955.92c-31.52,-124.06 -59.54,-204.32 -84.05,-241.54 -33.62,-48.16 -71.8,-72.24 -114.18,-72.24l-40.98 0 0 1269.7 -466.5 0zm466.5 -1860.76l196.48 0c21.01,0 62.34,-14.59 123.28,-43.05 30.83,-12.41 56.04,-45.25 75.3,-98.52 19.61,-53.27 29.42,-113.83 29.42,-182.42 0,-101.43 -15.41,-179.52 -46.23,-233.51 -30.82,-54.73 -88.61,-81.73 -173.71,-81.73l-204.54 0 0 639.23zm2087.36 1344.12l-526.74 0 -75.65 516.64 -474.56 0 566.32 -3134.84 508.88 0 563.87 3134.84 -486.82 0 -75.3 -516.64zm-98.41 -678.63l-164.26 -1126.67 -164.95 1126.67 329.21 0zm46.93 -2718.89l161.8 0c0.71,37.21 1.06,69.32 1.06,96.31 0,158.35 -19.27,281.67 -57.44,368.51 -38.18,86.83 -87.56,130.62 -147.45,130.62 -43.78,0 -109.97,-37.22 -198.93,-111.65 -53.93,-45.24 -91.06,-67.86 -111.72,-67.86 -19.61,0 -35.02,13.13 -45.88,38.68 -10.86,25.53 -16.81,70.78 -17.51,136.45l-159.7 0c-0.7,-34.3 -1.06,-64.22 -1.06,-90.48 0,-153.24 20.32,-275.1 60.59,-364.86 40.28,-90.49 87.91,-135.72 143.25,-135.72 23.81,0 46.58,5.83 67.59,16.77 21.37,11.68 60.24,42.33 117.33,91.95 57.08,50.35 98.76,75.16 124.68,75.16 18.21,0 33.27,-13.14 44.48,-39.4 11.2,-26.27 17.51,-74.43 18.91,-144.48zm701.51 2348.93c0,-511.52 68.29,-909.95 205.23,-1194.54 136.94,-285.31 327.46,-427.6 571.92,-427.6 250.41,0 443.39,140.1 578.93,419.57 135.54,280.22 203.13,672.8 203.13,1177.03 0,366.31 -29.42,666.22 -88.6,900.46 -59.2,234.23 -145,416.66 -256.72,547.28 -112.08,130.62 -251.47,195.57 -418.52,195.57 -169.52,0 -309.96,-56.19 -421.33,-168.57 -111.02,-113.1 -201.38,-291.15 -270.38,-534.87 -68.99,-243 -103.66,-548.02 -103.66,-914.33zm464.4 2.19c0,315.97 28.36,543.63 84.75,681.55 56.74,137.91 133.79,207.24 231.15,207.24 99.82,0 177.57,-67.87 232.21,-202.86 54.98,-135.73 82.3,-377.99 82.3,-728.99 0,-294.8 -28.72,-510.06 -85.81,-645.79 -57.43,-136.46 -134.84,-204.31 -232.9,-204.31 -93.86,0 -169.51,69.32 -226.24,207.23 -57.1,137.91 -85.46,367.04 -85.46,685.93z"/>
    <polygon class="fil2" points="12236.05,9852 18769.8,9852 18769.8,9945.39 12236.05,9945.39 "/>
    <path class="fil1" d="M11305.85 7959.92l0 -1186.58 2418.03 0 0 2432.97c-462.37,354.78 -871.66,597.95 -1227.88,725.51 -356.22,128.89 -778.49,192.67 -1266.81,192.67 -601.56,0 -1091.07,-115.6 -1469.7,-346.81 -379.81,-229.88 -673.51,-574.03 -881.11,-1031.12 -208.77,-457.1 -313.75,-980.63 -313.75,-1571.94 0,-623.18 114.41,-1165.32 342.07,-1626.4 228.82,-459.76 562.62,-809.22 1002.59,-1048.4 343.24,-184.69 805.62,-276.38 1385.95,-276.38 559.1,0 977.83,57.13 1256.2,171.4 277.19,114.28 507.19,291 691.2,531.51 182.83,239.18 320.83,543.47 412.83,912.87l-1509.8 302.96c-62.51,-215.27 -168.66,-380.03 -317.29,-494.3 -147.44,-114.28 -337.33,-171.42 -567.36,-171.42 -343.23,0 -616.88,134.21 -820.94,402.62 -204.06,269.73 -306.68,693.61 -306.68,1275.61 0,617.89 103.8,1059.03 310.22,1323.46 205.24,264.42 493.04,397.3 862.23,397.3 174.57,0 342.06,-29.23 500.13,-86.37 159.23,-57.13 342.06,-154.14 546.12,-291l0 -538.16 -1046.25 0z"/>
    <path class="fil1" d="M19616.51 4223.48c-8.72,7.79 -15.76,42.84 -21.33,107.1 -13.33,194.74 -31.26,393.37 -53.8,595.89 -10.91,95.42 -23.52,173.32 -37.82,233.69 -14.07,60.37 -30.31,91.53 -48.02,91.53l-475.11 0c-3.63,0 -7.03,29.21 -9.69,85.68 -2.67,52.58 -4.12,97.37 -4.12,136.32l0.11 1668.89c0,79.85 8.98,118.79 26.93,118.79l313.1 0 0.23 3635.74 -320.62 0c-2.91,0 -6.54,7.78 -11.15,27.26 -4.61,23.37 -6.79,52.58 -6.78,91.52l0.11 1805.21c0,23.37 1.46,54.53 4.13,97.37 2.67,44.79 5.83,68.16 9.71,68.16l1350.14 0c10.43,0 16.25,-38.94 17.22,-114.89l-0.12 -1844.16c-0.98,-79.84 -6.81,-124.63 -17.23,-130.47l-311.41 0 -0.42 -6552.9c0,-74 -6.55,-112.94 -19.89,-120.73l-384.17 0zm2062.77 8763.15c66.94,0 148.67,-81.79 245.67,-245.37 97,-163.58 192.78,-416.74 287.59,-759.47 96.01,-356.37 175.77,-827.63 239.28,-1413.79 64.96,-582.26 97.89,-1291.1 98.81,-2128.47 -1.02,-769.21 -28.47,-1421.58 -82.34,-1962.95 -53.15,-535.53 -123.51,-971.74 -211.57,-1306.68 -183.15,-638.74 -378.65,-954.21 -586,-946.42l-222.64 0c-332.99,31.15 -576.22,521.89 -729.19,1472.21 -154.67,926.95 -231.24,1912.31 -230.21,2954.15 2.75,1300.85 93.04,2342.69 270.38,3121.63 174.67,802.32 400.73,1207.37 678.18,1215.16l242.04 0zm-160.49 -6603.52c89.98,15.58 159.12,257.05 207.9,726.36 47.56,459.58 71.84,962.01 73.09,1507.27 -1.17,609.53 -26.36,1127.52 -76.05,1554 -49.45,444 -118.31,671.84 -206.11,679.63 -63.05,-7.79 -122.49,-218.1 -178.05,-629 -58.96,-399.21 -89.55,-934.73 -91.78,-1604.63 -0.04,-638.74 24.42,-1168.42 72.9,-1587.11 46.78,-422.58 112.73,-638.73 198.1,-646.52zm2375.25 6603.52c66.93,0 148.66,-81.79 245.66,-245.37 97,-163.58 192.78,-416.74 287.59,-759.47 96.02,-356.37 175.78,-827.63 239.28,-1413.79 64.96,-582.26 97.9,-1291.1 98.82,-2128.47 -1.03,-769.21 -28.47,-1421.58 -82.35,-1962.95 -53.14,-535.53 -123.51,-971.74 -211.56,-1306.68 -183.15,-638.74 -378.65,-954.21 -586.01,-946.42l-222.64 0c-332.99,31.15 -576.21,521.89 -729.18,1472.21 -154.67,926.95 -231.25,1912.31 -230.21,2954.15 2.75,1300.85 93.03,2342.69 270.37,3121.63 174.68,802.32 400.74,1207.37 678.19,1215.16l242.04 0zm-160.5 -6603.52c89.98,15.58 159.12,257.05 207.9,726.36 47.56,459.58 71.85,962.01 73.09,1507.27 -1.17,609.53 -26.36,1127.52 -76.05,1554 -49.44,444 -118.31,671.84 -206.1,679.63 -63.06,-7.79 -122.49,-218.1 -178.05,-629 -58.97,-399.21 -89.56,-934.73 -91.79,-1604.63 -0.04,-638.74 24.42,-1168.42 72.9,-1587.11 46.78,-422.58 112.74,-638.73 198.1,-646.52zm2375.25 6603.52c66.94,0 148.67,-81.79 245.67,-245.37 96.99,-163.58 192.78,-416.74 287.59,-759.47 96.01,-356.37 175.77,-827.63 239.28,-1413.79 64.95,-582.26 97.89,-1291.1 98.81,-2128.47 -1.02,-769.21 -28.47,-1421.58 -82.34,-1962.95 -53.15,-535.53 -123.51,-971.74 -211.57,-1306.68 -183.15,-638.74 -378.65,-954.21 -586,-946.42l-222.65 0c-332.98,31.15 -576.21,521.89 -729.18,1472.21 -154.67,926.95 -231.25,1912.31 -230.21,2954.15 2.75,1300.85 93.04,2342.69 270.37,3121.63 174.68,802.32 400.74,1207.37 678.19,1215.16l242.04 0zm-160.49 -6603.52c89.98,15.58 159.12,257.05 207.89,726.36 47.56,459.58 71.85,962.01 73.1,1507.27 -1.17,609.53 -26.36,1127.52 -76.06,1554 -49.44,444 -118.3,671.84 -206.1,679.63 -63.05,-7.79 -122.49,-218.1 -178.05,-629 -58.97,-399.21 -89.55,-934.73 -91.78,-1604.63 -0.04,-638.74 24.42,-1168.42 72.9,-1587.11 46.78,-422.58 112.73,-638.73 198.1,-646.52z"/>
   </g>
  </g>
 </g>
</svg>
