<?xml version="1.0" encoding="UTF-8" standalone="no"?>
<svg
   version="1.1"
   width="8.2677in"
   height="11.6929in"
   viewBox="0 0 595.2756 841.8898"
   id="svg28"
   sodipodi:docname="logo grão 1000 corel.cdr"
   xmlns:inkscape="http://www.inkscape.org/namespaces/inkscape"
   xmlns:sodipodi="http://sodipodi.sourceforge.net/DTD/sodipodi-0.dtd"
   xmlns="http://www.w3.org/2000/svg"
   xmlns:svg="http://www.w3.org/2000/svg">
  <defs
     id="defs32" />
  <sodipodi:namedview
     id="namedview30"
     pagecolor="#ffffff"
     bordercolor="#000000"
     borderopacity="0.25"
     inkscape:showpageshadow="2"
     inkscape:pageopacity="0.0"
     inkscape:pagecheckerboard="0"
     inkscape:deskcolor="#d1d1d1"
     inkscape:document-units="in" />
  <g
     id="Layer1000">
    <path
       d="  M670.1753,423.0249 C670.8799,422.6465 671.6068,422.3261 672.3557,422.0641 C674.1318,421.4428 676.0039,421.1301 677.9720,421.1301 C679.6092,421.1301 681.1539,421.3342 682.6065,421.7402 C684.7981,422.3525 686.6523,423.4217 688.1724,424.9412 C688.2500,425.0186 688.3257,425.0972 688.4002,425.1765 C689.5229,426.3531 690.4253,427.7211 691.1021,429.2827 C691.7871,430.8622 692.1870,432.5190 692.2969,434.2533 C692.3828,435.6124 692.2656,437.1907 691.9428,438.9873 C691.6967,440.3579 691.3672,441.8046 690.9544,443.3259 C690.8972,443.5391 690.8333,443.7484 690.7643,443.9545 L688.9283,450.5787 L688.9428,450.5831 C688.5877,451.8916 688.3827,452.6613 688.3347,452.8695 C688.2691,453.1538 688.2088,453.4846 688.1546,453.8621 C688.1356,453.9963 688.1134,454.1292 688.0897,454.2615 L688.0816,454.4091 C688.0640,454.7434 688.0577,455.0065 688.0629,455.1971 C688.2099,460.8742 683.9848,465.6028 678.6257,465.7585 C678.5367,465.7611 678.4479,465.7622 678.3593,465.7622 L678.3593,465.7988 L674.5774,465.7988 C674.1774,465.7988 673.7829,465.7729 673.3954,465.7230 L673.3660,465.7318 C672.0313,466.1288 670.7288,466.3274 669.4595,466.3274 C667.1863,466.3274 665.1025,465.7910 663.2118,464.7215 C662.9892,464.8287 662.7646,464.9308 662.5382,465.0272 C660.5002,465.8955 658.4122,466.3274 656.2720,466.3274 C654.0773,466.3274 652.0607,465.8737 650.2228,464.9653 C649.0334,465.5025 647.7390,465.7926 646.4109,465.7920 L646.4109,465.7988 L642.5920,465.7988 C642.1648,465.7988 641.7438,465.7697 641.3311,465.7130 L641.2627,465.7325 C639.8668,466.1292 638.4768,466.3274 637.0890,466.3274 C635.8281,466.3274 634.5620,466.1180 633.2944,465.7037 C632.4238,465.4190 631.6021,465.0420 630.8303,464.5738 C630.5083,464.7346 630.1815,464.8845 629.8505,465.0231 C627.7721,465.8934 625.5775,466.3274 623.2656,466.3274 C621.1693,466.3274 619.1915,465.9298 617.3311,465.1354 C616.2540,465.5635 615.1000,465.7926 613.9197,465.7920 L613.9197,465.7988 L612.5678,465.7988 C612.3452,466.2041 612.1321,466.5667 611.9282,466.8868 C611.2979,467.8767 610.5779,468.8118 609.7714,469.6927 L609.7260,469.7410 C608.9113,470.6182 608.0402,471.3934 607.1136,472.0651 C606.2125,472.7186 605.2273,473.2924 604.1586,473.7851 L604.0804,473.8201 L604.0825,473.8254 C602.9694,474.3291 601.7559,474.7118 600.4441,474.9687 C599.1973,475.2126 598.0079,475.3366 596.8811,475.3366 C594.3911,475.3366 592.1485,474.8956 590.1551,474.0182 C587.1732,472.7069 584.9732,470.5664 583.5540,467.6062 C583.3527,467.1861 583.1711,466.7573 583.0089,466.3196 C582.8475,466.3248 582.6858,466.3274 582.5238,466.3274 C580.6135,466.3274 578.7833,465.9520 577.0291,465.1981 C576.7678,465.0858 576.5104,464.9654 576.2565,464.8369 C574.9933,465.4567 573.6016,465.7928 572.1710,465.7920 L572.1710,465.7988 L568.3520,465.7988 C565.5148,465.7988 562.9612,464.5138 561.1811,462.4634 C559.7773,463.6275 558.2491,464.5385 556.5992,465.1985 C554.7133,465.9527 552.8043,466.3274 550.8725,466.3274 C547.2973,466.3274 544.2157,465.1767 541.6274,462.8697 C540.9166,462.2362 540.2793,461.5440 539.7156,460.7934 C539.2443,461.2860 538.7554,461.7508 538.2485,462.1874 L538.2637,462.2071 C536.7776,463.4945 535.1485,464.4907 533.3792,465.1985 C531.4933,465.9527 529.5843,466.3274 527.6526,466.3274 C525.4948,466.3274 523.5171,465.9082 521.7189,465.0686 C520.5955,465.5396 519.3845,465.7924 518.1443,465.7920 L518.1443,465.7988 L514.5991,465.7988 C514.2906,465.7988 513.9858,465.7829 513.6846,465.7531 C512.4343,466.1366 511.1862,466.3274 509.9406,466.3274 C508.1266,466.3274 506.4469,465.9795 504.9014,465.2843 C504.0578,465.5670 503.1633,465.7315 502.2347,465.7585 C502.1457,465.7611 502.0569,465.7622 501.9683,465.7622 L501.9683,465.7988 L498.1864,465.7988 C497.7864,465.7988 497.3919,465.7729 497.0044,465.7230 L496.9750,465.7318 C495.6403,466.1288 494.3378,466.3274 493.0685,466.3274 C491.3560,466.3274 489.7508,466.0229 488.2548,465.4154 C487.4168,465.6626 486.5424,465.7924 485.6531,465.7920 L485.6531,465.7988 L482.1079,465.7988 C481.7994,465.7988 481.4944,465.7827 481.1933,465.7531 C479.9428,466.1366 478.6953,466.3274 477.4493,466.3274 C475.4776,466.3274 473.6646,465.9166 472.0098,465.0948 C470.9040,465.5490 469.7149,465.7926 468.4977,465.7920 L468.4977,465.7988 L464.6789,465.7988 C464.0002,465.7988 463.3378,465.7250 462.6982,465.5851 C462.0669,465.7214 461.4188,465.7923 460.7625,465.7920 L460.7625,465.7988 L456.9436,465.7988 C456.2648,465.7988 455.6025,465.7250 454.9628,465.5851 C454.3315,465.7214 453.6835,465.7923 453.0270,465.7920 L453.0270,465.7988 L449.2082,465.7988 C447.9344,465.7988 446.7178,465.5392 445.6027,465.0684 C443.7763,465.9082 441.8940,466.3274 439.9558,466.3274 C438.7383,466.3274 437.5408,466.1383 436.3628,465.7585 C436.1049,465.7804 435.8451,465.7921 435.5842,465.7920 L435.5842,465.7988 L432.0392,465.7988 C431.5257,465.7988 431.0218,465.7564 430.5299,465.6753 C430.2019,465.7208 429.8686,465.7486 429.5306,465.7585 C429.4416,465.7611 429.3528,465.7622 429.2643,465.7622 L429.2643,465.7988 L425.4824,465.7988 C425.0823,465.7988 424.6879,465.7729 424.3004,465.7230 L424.2709,465.7318 C422.9362,466.1288 421.6338,466.3274 420.3646,466.3274 C418.0297,466.3274 415.8941,465.7616 413.9620,464.6326 C413.5493,464.8382 413.1287,465.0268 412.6994,465.1985 C410.8135,465.9527 408.9045,466.3274 406.9727,466.3274 C404.1191,466.3274 401.5800,465.5942 399.3553,464.1252 C397.7988,465.1954 395.9608,465.7928 394.0539,465.7920 L394.0539,465.7988 L390.2348,465.7988 C389.8464,465.7988 389.4633,465.7741 389.0869,465.7271 L389.0680,465.7325 C387.6721,466.1292 386.2821,466.3274 384.8943,466.3274 C383.6334,466.3274 382.3673,466.1180 381.0997,465.7037 C380.2291,465.4190 379.4074,465.0420 378.6356,464.5738 C378.3136,464.7346 377.9868,464.8845 377.6558,465.0231 C375.5773,465.8934 373.3828,466.3274 371.0709,466.3274 C369.1333,466.3274 367.2973,465.9879 365.5613,465.3091 C364.7401,465.5766 363.8713,465.7323 362.9705,465.7585 C362.8815,465.7611 362.7927,465.7622 362.7042,465.7622 L362.7042,465.7988 L358.9223,465.7988 C358.5222,465.7988 358.1278,465.7729 357.7403,465.7230 L357.7108,465.7318 C356.3761,466.1288 355.0737,466.3274 353.8045,466.3274 C352.3265,466.3274 350.9291,466.1006 349.6122,465.6481 C349.4594,465.6751 349.3054,465.6987 349.1499,465.7182 C348.7662,465.7661 348.3854,465.7890 348.0083,465.7895 L348.0083,465.7988 L343.1963,465.7988 C341.5522,465.7988 340.0035,465.3668 338.6450,464.6048 C337.2674,465.3725 335.7157,465.7928 334.1153,465.7920 L334.1153,465.7988 L330.0876,465.7988 C326.5214,465.7988 323.4034,463.7683 321.7059,460.7398 C319.2382,464.8887 316.5646,469.0037 313.7194,473.0514 C304.9635,485.5091 294.5217,497.4300 283.4334,507.8157 C271.8475,518.6673 259.2145,528.1085 246.6216,535.0921 C234.3687,541.8874 222.0719,546.3998 210.6572,547.7190 C193.1068,549.7473 177.6042,546.1682 165.7865,535.3819 C159.4271,529.5776 154.3235,521.8082 150.7663,511.8420 C147.2089,521.8079 142.1052,529.5776 135.7462,535.3819 C123.9283,546.1682 108.4257,549.7473 90.8753,547.7190 C79.4604,546.3998 67.1635,541.8873 54.9107,535.0921 C42.3178,528.1083 29.6849,518.6672 18.0994,507.8157 C7.0109,497.4299 -3.4307,485.5088 -12.1870,473.0511 C-20.6032,461.0768 -27.5195,448.5172 -32.0431,436.2207 L-32.0432,436.2204 C-39.2529,416.6222 -41.3379,397.5736 -36.2186,380.8630 C-31.7745,366.3566 -22.1564,354.0240 -6.1085,345.1014 C-22.1562,336.1787 -31.7743,323.8463 -36.2186,309.3398 C-41.3379,292.6291 -39.2529,273.5805 -32.0432,253.9823 L-32.0416,253.9781 C-27.5178,241.6827 -20.6023,229.1246 -12.1870,217.1517 C-3.4307,204.6939 7.0109,192.7728 18.0994,182.3870 C29.6849,171.5355 42.3178,162.0944 54.9107,155.1106 C67.1635,148.3154 79.4604,143.8030 90.8753,142.4837 C108.4254,140.4554 123.9277,144.0342 135.7454,154.8202 C145.7625,163.9625 152.6654,177.9803 155.3139,197.7808 C155.7655,196.7780 156.2336,195.7861 156.7177,194.8054 L156.7337,194.7740 L156.7177,194.7651 C160.4232,187.3197 165.0067,180.7381 170.4718,175.0216 C175.8844,169.3600 182.1671,164.5838 189.3237,160.6932 L189.3696,160.6692 L189.3618,160.6529 C195.0373,157.5990 201.6095,155.3313 209.0725,153.8453 C216.2969,152.4065 224.2825,151.6897 233.0245,151.6897 C250.0286,151.6897 263.0653,153.5513 272.1342,157.2741 C276.8988,159.2384 281.2288,161.7170 285.1284,164.7151 C289.0526,167.7321 292.5952,171.3067 295.7610,175.4443 C298.8251,179.4528 301.5076,183.9954 303.8031,189.0711 C306.0405,194.0187 307.8840,199.3925 309.3280,205.1909 C310.6940,210.6898 307.5933,216.3209 302.4023,217.7679 C302.1219,217.8461 301.8411,217.9096 301.5605,217.9606 L271.6101,223.9704 L301.8680,223.9704 C302.3864,223.9704 302.8952,224.0136 303.3917,224.0963 C304.0885,219.1211 308.1365,215.3037 313.0268,215.3037 L334.9873,215.3037 C337.6135,215.3037 340.1078,215.5785 342.4687,216.1314 C345.1087,216.7501 347.4570,217.7541 349.5094,219.1478 L349.5328,219.1088 C351.7198,220.5787 353.6319,222.5801 355.2676,225.1164 C356.6154,227.2066 357.7607,229.6596 358.7024,232.4772 C358.9427,233.1926 359.1661,233.9277 359.3722,234.6815 L360.6477,227.6093 C358.8818,225.7414 357.7893,223.1596 357.7893,220.3072 C357.7893,220.0727 357.7975,219.8401 357.8120,219.6095 L357.8050,219.0630 C357.7745,216.4927 357.7594,219.4221 357.7594,217.7629 C357.7594,215.0292 357.9540,212.5002 358.3413,210.1776 C358.7764,207.5672 359.4732,205.1968 360.4283,203.0680 C361.5614,200.5424 362.9745,198.4822 364.6640,196.8937 C367.1982,194.5114 370.0743,193.3155 373.2889,193.3155 C374.3235,193.3155 375.4135,193.4647 376.5650,193.7620 C377.4580,193.9927 378.3010,194.3016 379.0989,194.6882 C380.5127,193.8381 382.1461,193.3538 383.8821,193.3545 L383.8821,193.3155 L388.4787,193.3155 C393.8589,193.3155 398.2203,197.9357 398.2203,203.6350 C398.2203,203.8757 398.2119,204.1144 398.1966,204.3510 L398.2041,204.9879 L398.2045,204.9879 C398.2352,207.7467 398.2501,204.5738 398.2501,206.3655 C398.2501,209.0597 398.0629,211.6001 397.6906,213.9848 C397.2621,216.7283 396.6005,219.1151 395.7085,221.1443 C395.5468,221.5122 395.3667,221.8647 395.1710,222.2022 C395.0222,222.4982 394.8692,222.7868 394.7121,223.0678 C394.8096,223.4724 394.8846,223.8868 394.9352,224.3090 L397.7816,240.0805 C398.6884,236.9782 399.7607,234.1373 400.9985,231.5587 C403.6600,226.0130 407.0085,221.7327 411.0427,218.7160 C415.4326,215.4331 420.3773,213.7937 425.8768,213.7937 C431.4136,213.7937 436.3825,215.3915 440.7831,218.5863 L440.7996,218.5983 L440.7982,197.4470 L440.7601,197.4470 C440.7601,196.8135 440.7785,197.5587 440.8127,196.0390 C440.8273,195.3771 440.8407,194.9035 440.8529,194.5450 C440.8870,193.6083 440.9085,193.0605 440.9158,192.9266 L440.9973,191.4667 C441.0246,191.1147 441.0683,190.7682 441.1277,190.4283 C441.1680,190.0625 441.2082,189.7696 441.2483,189.5504 C441.8128,186.4448 443.2873,184.0880 445.7386,182.4470 C447.3487,181.3731 449.1420,180.8625 450.9138,180.8642 L450.9138,180.8345 L457.6324,180.8345 L457.6617,180.6050 C457.6726,180.5161 457.6849,180.4276 457.6978,180.3395 C457.7754,179.6651 457.9047,178.4599 458.0925,176.6527 C458.3060,174.5971 458.4476,173.1777 458.5099,172.4520 L458.5138,172.4120 L458.5099,172.4117 C458.6942,170.3606 458.8148,169.0031 458.8789,168.2557 C459.2951,163.4090 458.5998,171.3301 459.1932,164.1017 C459.2193,163.7811 459.2596,163.4653 459.3123,163.1548 C459.3466,162.8176 459.3729,162.5816 459.3896,162.4620 C459.4603,161.9561 459.5508,161.4263 459.6651,160.8648 C459.7056,160.6623 459.7521,160.4628 459.8032,160.2658 C459.9307,159.6741 460.0557,159.1958 460.1787,158.8308 C461.1322,156.0029 462.8415,153.9629 465.3675,152.6958 C466.7097,152.0250 468.1234,151.7084 469.5153,151.7095 L469.5153,151.6881 L480.7763,151.6881 C482.3279,151.6881 483.7945,152.0732 485.0965,152.7567 C487.2393,153.8274 488.8638,155.6217 489.9274,158.1926 C490.3519,159.2197 490.6560,160.3272 490.8301,161.5246 C490.8614,161.7455 490.8850,161.9657 490.9028,162.1852 C490.9560,162.6065 490.9952,163.0027 491.0205,163.3797 C491.0452,163.7496 491.0573,164.3938 491.0576,165.3198 L491.0597,199.7656 C491.6984,196.4388 492.4251,193.1058 493.2376,189.7668 C494.2357,185.6650 495.2491,182.0303 496.2769,178.8507 C496.3610,178.5878 496.4544,178.3310 496.5562,178.0802 C497.6474,174.8168 498.8208,171.8573 500.0749,169.2025 C501.5342,166.1136 503.0973,163.4221 504.7624,161.1289 C504.8649,160.9882 504.9703,160.8512 505.0781,160.7177 C507.0696,158.0958 509.2702,156.0310 511.6822,154.5330 C514.5931,152.7249 517.7009,151.7854 521.0069,151.7284 C521.0579,151.7276 521.1085,151.7279 521.1591,151.7279 L521.1591,151.6881 L527.5528,151.6881 C529.5357,151.6881 531.5217,152.0922 533.5099,152.9175 C535.1686,153.6057 536.8046,154.6118 538.4153,155.9477 C539.8920,157.1675 541.2402,158.5745 542.4678,160.1624 C543.4724,161.4622 544.5508,163.1244 545.7004,165.1324 C545.7185,165.1639 545.7356,165.1959 545.7532,165.2276 L545.7765,165.2130 C546.7324,166.9223 547.7014,168.9254 548.6830,171.2430 C549.5817,173.3658 550.4534,175.6929 551.2946,178.2374 L551.3064,178.2330 C552.0717,180.5236 552.8624,183.2494 553.6799,186.4176 C554.2517,188.6338 554.7771,190.8294 555.2569,193.0073 C555.5019,191.9278 555.7558,190.8477 556.0187,189.7668 C557.0168,185.6650 558.0302,182.0303 559.0581,178.8507 C559.1421,178.5878 559.2356,178.3310 559.3373,178.0802 C560.4285,174.8168 561.6019,171.8573 562.8561,169.2025 C564.3153,166.1136 565.8784,163.4221 567.5435,161.1289 C567.6460,160.9882 567.7514,160.8512 567.8593,160.7177 C569.8507,158.0958 572.0514,156.0310 574.4633,154.5330 C577.3743,152.7249 580.4821,151.7854 583.7881,151.7284 C583.8390,151.7276 583.8896,151.7279 583.9403,151.7279 L583.9403,151.6881 L590.3340,151.6881 C592.3168,151.6881 594.3029,152.0922 596.2911,152.9175 C597.9497,153.6057 599.5857,154.6118 601.1964,155.9477 C602.6731,157.1675 604.0213,158.5745 605.2489,160.1624 C606.2536,161.4622 607.3319,163.1244 608.4816,165.1324 C608.4997,165.1639 608.5167,165.1959 608.5343,165.2276 L608.5577,165.2130 C609.5136,166.9223 610.4825,168.9254 611.4642,171.2430 C612.3629,173.3658 613.2345,175.6929 614.0757,178.2374 L614.0875,178.2330 C614.8529,180.5236 615.6436,183.2494 616.4611,186.4176 C617.0328,188.6338 617.5583,190.8294 618.0380,193.0073 C618.2830,191.9278 618.5369,190.8477 618.7998,189.7668 C619.7979,185.6650 620.8114,182.0303 621.8392,178.8507 C621.9233,178.5878 622.0167,178.3310 622.1184,178.0802 C623.2096,174.8168 624.3831,171.8573 625.6372,169.2025 C627.0964,166.1136 628.6596,163.4221 630.3247,161.1289 C630.4272,160.9882 630.5325,160.8512 630.6404,160.7177 C632.6318,158.0958 634.8325,156.0310 637.2444,154.5330 C640.1554,152.7249 643.2632,151.7854 646.5692,151.7284 C646.6201,151.7276 646.6708,151.7279 646.7214,151.7279 L646.7214,151.6881 L653.1149,151.6881 C655.0978,151.6881 657.0843,152.0922 659.0720,152.9175 C660.7309,153.6056 662.3667,154.6118 663.9774,155.9477 C665.4539,157.1673 666.8024,158.5745 668.0299,160.1624 C669.0347,161.4621 670.1130,163.1244 671.2627,165.1324 C671.2808,165.1639 671.2978,165.1959 671.3155,165.2276 L671.3388,165.2130 C672.2947,166.9223 673.2636,168.9254 674.2453,171.2430 C675.1440,173.3658 676.0157,175.6929 676.8568,178.2374 L676.8686,178.2330 C677.6340,180.5236 678.4247,183.2494 679.2422,186.4176 C680.0565,189.5735 680.7766,192.6880 681.4048,195.7688 L681.4127,195.7670 C682.0394,198.8341 682.6648,202.3913 683.2881,206.4242 C683.9317,210.5888 684.4803,214.6140 684.9350,218.4989 C685.4250,222.7434 685.8645,227.2521 686.2517,232.0399 C686.5981,236.3208 686.9198,241.2830 687.2161,246.9504 C687.4744,251.8908 687.6757,257.3959 687.8202,263.4544 C687.9560,269.1413 688.0256,275.1844 688.0294,281.5742 C688.0264,287.7162 687.9598,293.5401 687.8311,299.0462 C687.6936,304.9311 687.5009,310.3210 687.2547,315.2193 C686.9727,320.7953 686.6685,325.7087 686.3433,329.9436 C685.9885,334.5653 685.5738,339.0587 685.1010,343.4097 C684.6326,347.7200 684.1328,351.7792 683.6014,355.5780 C683.0922,359.2186 682.5146,362.8387 681.8671,366.4367 C681.2405,369.9480 680.6034,373.1873 679.9551,376.1621 C679.2456,379.4176 678.5529,382.2968 677.8762,384.8076 C677.8379,384.9501 677.7962,385.0909 677.7527,385.2303 C677.0774,387.7502 676.3921,390.0914 675.6995,392.2593 C674.9263,394.6798 674.1421,396.8940 673.3509,398.9088 C672.5167,401.0231 671.7254,402.8839 670.9812,404.4666 C670.2287,406.0672 669.3670,407.6822 668.3862,409.3130 L668.3688,409.3415 L668.3862,409.3533 C667.5327,410.7657 666.6676,412.0543 665.7873,413.2075 C664.8260,414.4663 663.8220,415.5774 662.7680,416.5287 C663.7937,417.8612 664.5114,419.4702 664.8061,421.2340 C666.4298,421.4254 667.9591,421.8814 669.3942,422.6004 C669.6608,422.7341 669.9213,422.8755 670.1753,423.0249 Z Z M617.0752,376.6129 C616.4000,379.6841 615.7404,382.4133 615.0951,384.8076 C615.0568,384.9501 615.0150,385.0909 614.9716,385.2303 C614.2963,387.7502 613.6110,390.0914 612.9184,392.2593 C612.1452,394.6798 611.3609,396.8940 610.5698,398.9088 C609.7355,401.0231 608.9443,402.8839 608.2001,404.4666 C607.4476,406.0672 606.5859,407.6822 605.6051,409.3130 L605.5876,409.3415 L605.6051,409.3533 C604.7515,410.7657 603.8864,412.0543 603.0062,413.2075 C601.9677,414.5674 600.8793,415.7550 599.7319,416.7550 L599.7131,416.7709 L599.7319,416.7953 C598.5545,417.8157 597.3183,418.6596 596.0057,419.3194 C594.1846,420.2350 592.3444,420.7139 590.4705,420.7336 C590.5035,420.8860 590.5332,421.0396 590.5596,421.1945 C592.9180,421.4148 595.0705,422.2022 597.0173,423.5566 C597.1643,423.4620 597.3123,423.3702 597.4611,423.2806 C599.8450,421.8483 602.3085,421.1301 604.8503,421.1301 C606.1836,421.1301 607.4402,421.3159 608.6196,421.6871 C608.7865,421.6780 608.9541,421.6731 609.1224,421.6732 L609.1224,421.6664 L609.8429,421.6664 L612.2690,417.2934 C614.0739,414.0326 617.3128,412.2153 620.6406,412.2121 L620.6406,412.1739 L624.9237,412.1739 C629.4637,412.1739 633.2784,415.4636 634.3589,419.9158 C634.8620,419.3990 635.4149,418.9427 636.0064,418.5536 L637.0444,417.7725 L636.8887,417.6717 C634.3914,416.0407 632.0987,413.7855 630.0100,410.9070 C628.1992,408.4176 626.5244,405.4803 624.9823,402.1100 C623.5671,399.0169 622.2217,395.4528 620.9450,391.4337 C620.8897,391.2592 620.8394,391.0842 620.7936,390.9088 C619.5531,386.9152 618.4668,382.8456 617.5351,378.7088 C617.3803,378.0217 617.2269,377.3231 617.0752,376.6129 Z Z M450.7479,332.4617 C449.1196,333.7577 447.0955,334.5259 444.9019,334.5259 L267.4045,334.5259 C263.7742,335.6954 259.9340,336.6627 255.8844,337.4286 L278.8504,337.4222 L278.8504,337.4221 L280.8829,337.3265 C281.2936,337.3077 281.6993,337.3164 282.0988,337.3509 L282.1007,337.3265 L283.1785,337.4221 C283.2891,337.4317 283.3990,337.4442 283.5084,337.4575 C284.7657,337.5253 285.6503,337.5821 286.1498,337.6277 C287.1807,337.7216 288.1541,337.8405 289.0635,337.9839 C290.5177,338.2133 292.0492,338.5506 293.6560,338.9973 L293.6915,339.0075 L293.6941,338.9973 C295.1455,339.4010 296.6130,339.9071 298.0932,340.5178 C318.6757,349.0149 330.9868,362.0898 336.7673,378.0061 C340.6552,388.7112 341.4340,400.4485 339.6801,412.7251 L347.3641,412.7251 C348.9455,412.7251 350.4397,412.8659 351.8459,413.1459 C353.8847,413.5514 355.6724,414.3093 357.2084,415.4150 C359.0235,416.7223 360.4282,418.4175 361.4189,420.4981 C361.5197,420.7097 361.6156,420.9237 361.7070,421.1404 C361.9092,421.1337 362.1125,421.1301 362.3168,421.1301 C363.9582,421.1301 365.5039,421.3346 366.9549,421.7412 C367.9921,422.0317 368.9534,422.4242 369.8392,422.9179 C370.2546,422.7055 370.6789,422.5116 371.1125,422.3365 C373.1034,421.5325 375.2062,421.1301 377.4209,421.1301 C378.6287,421.1301 379.7923,421.2512 380.9108,421.4920 C381.6822,420.2959 382.6755,419.3007 383.8117,418.5536 L388.1325,415.3019 C392.5038,412.0072 398.5692,413.0900 401.6795,417.7206 C402.3943,418.7849 402.8906,419.9441 403.1781,421.1382 C403.3163,421.1329 403.4543,421.1301 403.5922,421.1301 C405.1955,421.1301 406.7334,421.4493 408.2085,422.0875 C409.8670,421.4495 411.5504,421.1301 413.2578,421.1301 C415.9841,421.1301 418.4367,421.8486 420.6159,423.2844 C421.4642,422.7910 422.3459,422.3839 423.2608,422.0641 C425.0369,421.4428 426.9088,421.1301 428.8769,421.1301 C429.6717,421.1301 430.4446,421.1781 431.1960,421.2741 L431.4814,420.2230 C432.6996,415.6874 436.6013,412.7295 440.8425,412.7320 L440.8425,412.7251 L441.4506,412.7251 C441.3724,412.4086 441.3043,412.0834 441.2467,411.7497 C441.1228,411.0332 441.0304,410.2701 440.9754,409.4689 L440.9700,409.4694 C440.9519,409.2184 440.9240,408.6441 440.8830,407.6427 C440.8382,406.5489 440.8149,405.9159 440.8149,405.7777 L440.8529,405.7777 L440.8496,354.4404 L440.8500,354.4001 L440.8496,354.4001 C440.8569,353.3153 440.8756,352.5978 440.9039,352.2479 C440.9654,351.4885 441.0892,350.6642 441.2702,349.8091 L441.2911,349.7165 C441.4480,348.9619 441.6399,348.2709 441.8650,347.6563 C443.4700,343.2702 446.4103,340.9293 450.7486,340.8135 L450.7479,332.4617 Z Z M208.4831,337.4417 C207.5997,337.2602 206.7251,337.0675 205.8591,336.8630 C197.9675,335.0005 190.9169,332.1752 184.7037,328.3883 L184.6968,328.4013 C178.4317,324.6093 172.8615,319.8581 167.9872,314.1540 C163.2501,308.6104 159.2170,302.2011 155.8879,294.9314 L155.8878,311.4024 L155.9189,318.0953 C155.9541,327.6382 152.3380,336.2894 146.4633,342.5614 C145.6234,343.4581 144.7367,344.3063 143.8078,345.1014 C144.7367,345.8968 145.6234,346.7446 146.4633,347.6413 C148.0781,349.3653 149.5217,351.2693 150.7663,353.3220 C152.0109,351.2694 153.4545,349.3653 155.0693,347.6413 C160.9342,341.3796 169.0663,337.4876 178.0747,337.4502 L178.1127,337.4505 L178.1127,337.4099 L178.2025,337.4099 L178.2025,337.4502 L208.4831,337.4417 Z Z M216.3564,215.3907 C214.3659,218.0219 212.8145,221.6349 211.7053,226.2406 C210.4578,231.4206 209.8321,237.7030 209.8321,245.1001 C209.8321,253.0771 210.4651,259.7580 211.7274,265.1432 C212.8310,269.8522 214.3832,273.4861 216.3805,276.0447 C216.5068,276.2064 216.6269,276.3714 216.7424,276.5386 C218.5812,278.7788 220.7509,280.4759 223.2481,281.6267 C226.0399,282.9130 229.3999,283.5578 233.3253,283.5578 C235.3743,283.5578 237.2711,283.4059 239.0109,283.1054 C240.8141,282.7942 242.6072,282.3154 244.3817,281.6740 C246.2467,281.0047 248.2616,280.0952 250.4187,278.9459 C250.8415,278.7206 251.2689,278.4869 251.7011,278.2450 L233.3253,278.2450 C227.9452,278.2450 223.5838,273.6247 223.5838,267.9254 L223.5838,234.2899 C223.5838,228.5906 227.9452,223.9704 233.3253,223.9704 L250.5473,223.9704 C249.2589,222.7153 248.2808,221.0832 247.7800,219.1972 C247.1833,217.2041 246.4311,215.5026 245.5263,214.0928 C244.6974,212.8015 243.6639,211.6807 242.4292,210.7314 C242.3407,210.6635 242.2540,210.5938 242.1684,210.5234 C241.0866,209.7308 239.8010,209.1097 238.3167,208.6614 C236.5212,208.1189 234.4314,207.8475 232.0546,207.8475 C228.5892,207.8475 225.5747,208.4763 223.0115,209.7333 C220.5091,210.9606 218.2905,212.8465 216.3564,215.3907 Z Z M554.2941,376.6129 C553.6189,379.6841 552.9592,382.4133 552.3140,384.8076 C552.2756,384.9501 552.2339,385.0909 552.1905,385.2303 C551.5152,387.7502 550.8299,390.0914 550.1372,392.2593 C549.3640,394.6798 548.5798,396.8940 547.7887,398.9088 C546.9544,401.0231 546.1631,402.8839 545.4189,404.4666 C544.6664,406.0672 543.8047,407.6822 542.8240,409.3130 L542.8065,409.3415 L542.8240,409.3533 C541.9704,410.7657 541.1053,412.0543 540.2250,413.2075 C539.1866,414.5674 538.0982,415.7550 536.9508,416.7550 L536.9319,416.7709 L536.9508,416.7953 C536.4576,417.2227 535.9539,417.6192 535.4388,417.9842 C535.9874,419.0152 536.3732,420.1557 536.5604,421.3674 C538.7808,421.7833 540.7930,422.7455 542.5969,424.2541 C543.5531,425.0541 544.3872,425.9623 545.0995,426.9783 C546.5213,425.4413 548.0200,424.2109 549.5940,423.2876 C549.8488,423.1375 550.1075,423.0018 550.3687,422.8783 C552.5867,421.7132 554.8502,421.1301 557.1576,421.1301 C560.4409,421.1301 563.3270,422.1720 565.8169,424.2541 C566.0619,424.4590 566.2986,424.6713 566.5275,424.8903 L567.7944,420.2230 C568.3494,418.1565 569.4619,416.4176 570.9095,415.1370 C569.6193,413.9206 568.3924,412.5105 567.2289,410.9070 C565.4180,408.4176 563.7432,405.4803 562.2012,402.1100 C560.7859,399.0169 559.4405,395.4528 558.1638,391.4337 C558.1086,391.2592 558.0583,391.0842 558.0124,390.9088 C556.7719,386.9152 555.6856,382.8456 554.7540,378.7088 C554.5992,378.0217 554.4458,377.3231 554.2941,376.6129 Z Z M514.1015,419.1896 C513.1595,418.7708 512.2346,418.2649 511.3264,417.6717 C508.8292,416.0407 506.5365,413.7855 504.4478,410.9070 C503.1205,409.0824 501.8663,407.0172 500.6840,404.7172 L500.6841,407.1025 L500.7222,407.1025 C500.7222,407.6196 500.6976,408.3461 500.6496,409.2693 C500.6030,410.1721 500.5171,410.9663 500.3946,411.6469 C500.3804,411.7273 500.3652,411.8073 500.3492,411.8871 L500.3566,411.8887 C500.1839,412.7422 499.9376,413.5466 499.6245,414.2963 C501.9271,415.8260 503.5825,418.3473 504.0579,421.2951 C504.7983,421.3966 505.5175,421.5452 506.2155,421.7402 C507.3985,422.0707 508.4831,422.5342 509.4698,423.1300 C510.7531,422.3857 512.0685,421.8488 513.4156,421.5197 L513.7675,420.2230 C513.8627,419.8685 513.9744,419.5240 514.1015,419.1896 Z"
       style="fill-rule: evenodd; fill: #000200; "
       id="path2" />
    <g
       id="Layer1001">
      <path
         d="  M6.9146,340.0909 C-30.7658,324.5353 -35.8616,292.6178 -23.0122,257.6906 C-14.4026,234.2878 3.8792,209.4046 24.5046,190.0863 C45.9126,170.0348 70.8968,155.1477 91.8769,152.7227 C120.3914,149.4271 141.7963,162.8486 146.0109,202.1299 C146.1347,203.0749 146.2493,204.0390 146.2493,205.2311 L146.1952,205.2311 C146.1951,205.6796 146.1829,206.1254 146.1596,206.5688 L146.1584,311.4425 L146.1895,318.1355 C146.2390,331.5244 136.0332,342.4209 123.3942,342.4733 L123.3045,342.4724 L123.3045,342.4733 L22.2379,342.5014 C21.5694,342.5633 20.8929,342.5970 20.2091,342.5970 L20.2083,342.5970 L20.2068,342.5970 L20.2053,342.5970 L19.1275,342.5014 C16.9429,342.3888 15.1713,342.2284 13.8514,342.0202 C11.4393,341.6394 9.1174,340.9997 6.9146,340.0909 Z Z M21.7747,396.2239 C16.5717,399.5731 16.6749,406.7792 19.7065,415.0193 C25.6234,431.1032 39.1858,449.1392 54.8384,463.7999 C69.7081,477.7272 85.4375,487.8802 96.7232,489.1846 C98.4183,489.3805 99.8068,487.6936 100.3895,483.1829 L100.3885,396.2085 L22.2260,396.1868 C22.0761,396.2006 21.9256,396.2132 21.7747,396.2239 Z Z M-23.0122,432.5121 C-35.8616,397.5849 -30.7658,365.6674 6.9146,350.1118 C9.1174,349.2030 11.4393,348.5633 13.8514,348.1825 C15.1713,347.9743 16.9429,347.8139 19.1275,347.7013 L20.2053,347.6057 L20.2068,347.6057 L20.2083,347.6057 L20.2091,347.6057 C20.8929,347.6057 21.5694,347.6394 22.2379,347.7013 L123.3045,347.7294 L123.3045,347.7303 L123.3942,347.7294 C136.0332,347.7818 146.2390,358.6783 146.1895,372.0672 L146.1584,378.7602 L146.1596,483.6339 C146.1829,484.0773 146.1951,484.5232 146.1952,484.9716 L146.2493,484.9716 C146.2493,486.1384 146.1348,487.1222 146.0113,488.0701 C141.7973,527.3535 120.3921,540.7756 91.8769,537.4800 C70.8968,535.0551 45.9126,520.1679 24.5046,500.1164 C3.8792,480.7981 -14.4026,455.9150 -23.0122,432.5121 Z Z M100.3895,484.5482 C100.3735,484.7203 100.3585,484.8660 100.3455,484.9716 L100.3895,484.9716 L100.3895,484.5482 Z Z M294.5666,350.1118 C332.2467,365.6674 337.3427,397.5847 324.4933,432.5121 C315.8838,455.9148 297.6018,480.7983 276.9766,500.1164 C255.5682,520.1679 230.5840,535.0551 209.6041,537.4800 C181.0888,540.7756 159.6838,527.3535 155.4699,488.0701 C155.3463,487.1222 155.2319,486.1384 155.2319,484.9716 L155.2859,484.9716 C155.2861,484.5232 155.2983,484.0773 155.3216,483.6339 L155.3227,378.7602 L155.2916,372.0672 C155.2421,358.6783 165.4479,347.7818 178.0870,347.7294 L178.1767,347.7303 L178.1767,347.7294 L279.2433,347.7013 C279.9118,347.6394 280.5883,347.6057 281.2721,347.6057 L281.2729,347.6057 L281.2744,347.6057 L281.2758,347.6057 L282.3536,347.7013 C284.5381,347.8139 286.3098,347.9743 287.6298,348.1825 C290.0417,348.5633 292.3634,349.2028 294.5666,350.1118 Z Z M281.7747,415.0193 C284.8061,406.7792 284.9095,399.5730 279.7065,396.2239 C279.5555,396.2132 279.4051,396.2006 279.2551,396.1868 L201.0927,396.2085 L201.0917,483.1829 C201.6744,487.6937 203.0629,489.3805 204.7578,489.1846 C216.0435,487.8802 231.7729,477.7274 246.6428,463.7999 C262.2954,449.1392 275.8576,431.1032 281.7747,415.0193 Z Z M201.0917,484.9716 L201.1356,484.9716 C201.1226,484.8660 201.1076,484.7203 201.0917,484.5482 L201.0917,484.9716 Z"
         style="fill-rule: evenodd; fill: #009933; "
         id="path4" />
      <path
         d="  M15.1711,372.7382 C-65.9474,406.2271 113.3588,581.2417 123.2708,485.0084 C123.2720,484.9964 123.2745,484.9836 123.2745,484.9717 L123.2734,378.6652 L123.3044,371.9722 L20.2090,371.9436 C20.1981,371.9437 20.2155,371.9432 20.2044,371.9439 C17.8949,372.0634 16.1707,372.3256 15.1711,372.7382 Z"
         style="fill-rule: evenodd; fill: #009933; "
         id="path6" />
      <path
         d="  M100.3895,205.2311 L100.3468,205.2311 C100.3595,205.3351 100.3740,205.4766 100.3895,205.6428 L100.3895,205.2311 Z"
         style="fill-rule: evenodd; fill: #009933; "
         id="path8" />
      <path
         d="  M19.7065,275.1834 C16.6749,283.4235 16.5717,290.6296 21.7747,293.9788 C21.9256,293.9895 22.0761,294.0021 22.2260,294.0159 L100.3885,293.9942 L100.3895,207.0198 C99.8068,202.5092 98.4183,200.8222 96.7232,201.0181 C85.4375,202.3225 69.7081,212.4755 54.8384,226.4028 C39.1858,241.0635 25.6234,259.0995 19.7065,275.1834 Z"
         style="fill-rule: evenodd; fill: #009933; "
         id="path10" />
      <path
         d="  M15.1711,317.4645 C-65.9474,283.9756 113.3588,108.9610 123.2708,205.1943 C123.2720,205.2063 123.2745,205.2191 123.2745,205.2310 L123.2734,311.5375 L123.3044,318.2305 L20.2090,318.2591 C20.1981,318.2590 20.2155,318.2595 20.2044,318.2588 C17.8949,318.1393 16.1707,317.8771 15.1711,317.4645 Z"
         style="fill-rule: evenodd; fill: #009933; "
         id="path12" />
      <path
         d="  M286.3100,372.7382 C367.4285,406.2271 188.1223,581.2417 178.2103,485.0084 C178.2091,484.9964 178.2066,484.9836 178.2066,484.9717 L178.2077,378.6652 L178.1767,371.9722 L281.2721,371.9436 C281.2830,371.9437 281.2656,371.9432 281.2766,371.9439 C283.5862,372.0634 285.3104,372.3256 286.3100,372.7382 Z"
         style="fill-rule: evenodd; fill: #009933; "
         id="path14" />
      <path
         d="  M325.4244,455.4793 L334.2297,423.0376 L342.7073,423.0376 C344.8370,423.0376 346.3068,423.3322 347.1142,423.9137 C347.9262,424.4951 348.4158,425.5296 348.5920,427.0173 C348.7663,428.5126 348.5973,430.2116 348.0768,432.1298 C347.4147,434.5689 346.4332,436.5776 345.1259,438.1634 C343.8186,439.7493 342.2394,440.7462 340.3819,441.1614 C341.0261,441.9846 341.4948,442.8907 341.7878,443.8801 C342.0854,444.8693 342.3688,446.6289 342.6400,449.1511 L343.3539,455.4793 L338.5421,455.4793 L337.5785,448.3959 C337.2263,445.8812 336.9467,444.2954 336.7399,443.6384 C336.5357,442.9889 336.2550,442.5358 335.8937,442.2943 C335.5278,442.0525 334.8830,441.9318 333.9550,441.9318 L333.1383,441.9318 L329.4611,455.4793 L325.4244,455.4793 Z Z M334.5401,436.7665 L337.5192,436.7665 C339.4496,436.7665 340.6883,436.6306 341.2425,436.3663 C341.7922,436.1020 342.2979,435.6412 342.7432,434.9919 C343.1932,434.3424 343.5492,433.5267 343.8137,432.5526 C344.1109,431.4578 344.1676,430.5817 343.9949,429.9020 C343.8200,429.2299 343.4289,428.8071 342.8263,428.6334 C342.5175,428.5579 341.5487,428.5201 339.9199,428.5201 L336.7785,428.5201 L334.5401,436.7665 Z Z M352.7571,439.2131 L349.5755,438.2162 C350.5882,435.9208 351.7222,434.2215 352.9727,433.1190 C354.2231,432.0164 355.7883,431.4653 357.6628,431.4653 C359.3657,431.4653 360.5491,431.7899 361.2059,432.4469 C361.8582,433.1040 362.2221,433.9347 362.2861,434.9466 C362.3503,435.9583 362.0198,437.8085 361.2859,440.5119 L359.2627,447.7615 C358.7030,449.8231 358.3493,451.3486 358.2036,452.3303 C358.0578,453.3120 358.0003,454.3617 358.0309,455.4793 L354.2447,455.4793 C354.2579,455.0715 354.2965,454.4673 354.3698,453.6669 C354.4100,453.2969 354.4291,453.0552 354.4320,452.9420 C353.4997,453.9840 352.5926,454.7619 351.7086,455.2830 C350.8247,455.8039 349.9641,456.0682 349.1243,456.0682 C347.6442,456.0682 346.6530,455.4112 346.1559,454.0974 C345.6567,452.7909 345.6807,451.1296 346.2260,449.1208 C346.5846,447.7992 347.1014,446.6136 347.7739,445.5716 C348.4445,444.5369 349.2047,443.7365 350.0596,443.1853 C350.9100,442.6339 352.0528,442.1506 353.4877,441.7354 C355.4173,441.1917 356.7955,440.6781 357.6094,440.2100 L357.7796,439.5831 C358.1075,438.3749 358.1601,437.5141 357.9397,436.9930 C357.7124,436.4794 357.0954,436.2226 356.0885,436.2226 C355.4063,436.2226 354.8180,436.4417 354.3166,436.8872 C353.8125,437.3252 353.2951,438.1031 352.7571,439.2131 Z Z M356.5150,444.2425 C355.9559,444.5069 355.0949,444.8240 353.9318,445.1939 C352.7734,445.5641 351.9790,445.9265 351.5599,446.2739 C350.9058,446.8554 350.4582,447.5802 350.2185,448.4638 C349.9808,449.3398 349.9773,450.0874 350.2042,450.7217 C350.4312,451.3562 350.8509,451.6733 351.4679,451.6733 C352.1548,451.6733 352.9140,451.3033 353.7392,450.5707 C354.3523,450.0043 354.8432,449.3248 355.2082,448.5091 C355.4492,447.9805 355.7751,446.9685 356.1787,445.4810 L356.5150,444.2425 Z Z M361.4182,448.8640 L365.5184,447.9126 C365.3548,449.1133 365.4363,450.0271 365.7695,450.6463 C366.0957,451.2731 366.7125,451.5827 367.6081,451.5827 C368.5964,451.5827 369.4188,451.2881 370.0797,450.6991 C370.5266,450.2837 370.8452,449.7250 371.0339,449.0302 C371.1609,448.5621 371.1747,448.1694 371.0778,447.8598 C370.9675,447.5652 370.6164,447.2859 370.0250,447.0366 C367.2407,445.9265 365.5618,444.9146 364.9838,444.0008 C364.1842,442.7245 364.0930,440.9575 364.7059,438.6996 C365.2614,436.6531 366.2231,434.9389 367.5885,433.5495 C368.9542,432.1599 370.6739,431.4653 372.7482,431.4653 C374.7249,431.4653 376.0523,431.9939 376.7279,433.0434 C377.4015,434.1007 377.6429,435.6564 377.4452,437.7179 L373.5586,438.8054 C373.6555,437.8841 373.5511,437.1742 373.2528,436.6834 C372.9546,436.1926 372.4030,435.9508 371.6001,435.9508 C370.5886,435.9508 369.8034,436.1773 369.2374,436.6381 C368.8571,436.9628 368.5982,437.3857 368.4589,437.8991 C368.3380,438.3446 368.3608,438.7223 368.5320,439.0319 C368.7673,439.4472 369.8020,440.0286 371.6387,440.7840 C373.4755,441.5391 374.6499,442.4602 375.1601,443.5553 C375.6637,444.6578 375.6426,446.2059 375.1056,448.1844 C374.5213,450.3367 373.4649,452.1944 371.9357,453.7425 C370.4112,455.2905 368.5623,456.0682 366.3905,456.0682 C364.4231,456.0682 363.0402,455.4189 362.2400,454.1274 C361.4442,452.8362 361.1681,451.0843 361.4182,448.8640 Z Z M389.4521,431.9636 L388.1117,436.9024 L385.4946,436.9024 L382.9100,446.4249 C382.3852,448.3581 382.1030,449.4832 382.0681,449.8006 C382.0329,450.1177 382.0726,450.3820 382.1963,450.5933 C382.3172,450.7973 382.5020,450.9029 382.7572,450.9029 C383.1146,450.9029 383.6781,450.7067 384.4597,450.3064 L383.4681,455.1394 C382.4137,455.7586 381.3274,456.0682 380.2045,456.0682 C379.5176,456.0682 378.9518,455.8795 378.5020,455.5020 C378.0522,455.1243 377.7818,454.6335 377.6886,454.0368 C377.5927,453.4328 377.6358,452.6247 377.8123,451.5977 C377.9301,450.8728 378.2861,449.4079 378.8866,447.1953 L381.6803,436.9024 L379.9262,436.9024 L381.2668,431.9636 L383.0209,431.9636 L384.2876,427.2967 L389.0978,423.6266 L386.8350,431.9636 L389.4521,431.9636 Z Z M389.3895,455.4793 L385.5752,455.4793 L391.9579,431.9636 L395.4936,431.9636 L394.5877,435.3015 C395.6239,433.7232 396.4523,432.6885 397.0728,432.1977 C397.6932,431.7068 398.3110,431.4653 398.9280,431.4653 C399.8004,431.4653 400.5338,431.8580 401.1301,432.6357 L398.4750,438.0578 C398.0146,437.3782 397.5084,437.0383 396.9560,437.0383 C396.4178,437.0383 395.8975,437.2799 395.3971,437.7557 C394.8947,438.2390 394.3687,439.0998 393.8151,440.3535 C393.2613,441.6070 392.4414,444.2350 391.3571,448.2297 L389.3895,455.4793 Z Z M406.9463,448.0485 L410.4778,449.0905 C409.3736,451.3637 408.1293,453.0930 406.7521,454.2861 C405.3724,455.4717 403.8880,456.0682 402.3058,456.0682 C399.7953,456.0682 398.2974,454.7316 397.8210,452.0585 C397.4521,449.9137 397.7079,447.2103 398.5955,443.9405 C399.6529,440.0439 401.1096,436.9855 402.9563,434.7804 C404.8050,432.5678 406.6865,431.4653 408.5982,431.4653 C410.7421,431.4653 412.1222,432.6206 412.7386,434.9314 C413.3503,437.2421 412.9830,440.7840 411.6320,445.5566 L402.0823,445.5566 C401.6101,447.3990 401.5268,448.8339 401.8375,449.8609 C402.1434,450.8879 402.7371,451.4015 403.6094,451.4015 C404.2081,451.4015 404.7808,451.1371 405.3281,450.6085 C405.8799,450.0799 406.4179,449.2266 406.9463,448.0485 Z Z M408.8786,441.7504 C409.3405,439.9457 409.4305,438.5714 409.1418,437.6348 C408.8550,436.6909 408.3233,436.2226 407.5438,436.2226 C406.7131,436.2226 405.8911,436.7212 405.0797,437.7104 C404.2683,438.6996 403.6368,440.0514 403.1850,441.7504 L408.8786,441.7504 Z Z M419.3162,439.2131 L416.1346,438.2162 C417.1473,435.9208 418.2814,434.2215 419.5318,433.1190 C420.7822,432.0164 422.3474,431.4653 424.2219,431.4653 C425.9248,431.4653 427.1082,431.7899 427.7650,432.4469 C428.4174,433.1040 428.7812,433.9347 428.8452,434.9466 C428.9094,435.9583 428.5789,437.8085 427.8451,440.5119 L425.8218,447.7615 C425.2621,449.8231 424.9084,451.3486 424.7627,452.3303 C424.6169,453.3120 424.5594,454.3617 424.5900,455.4793 L420.8038,455.4793 C420.8170,455.0715 420.8556,454.4673 420.9289,453.6669 C420.9691,453.2969 420.9882,453.0552 420.9911,452.9420 C420.0588,453.9840 419.1517,454.7619 418.2677,455.2830 C417.3838,455.8039 416.5234,456.0682 415.6834,456.0682 C414.2033,456.0682 413.2121,455.4112 412.7150,454.0974 C412.2158,452.7909 412.2398,451.1296 412.7851,449.1208 C413.1437,447.7992 413.6605,446.6136 414.3330,445.5716 C415.0036,444.5369 415.7638,443.7365 416.6187,443.1853 C417.4691,442.6339 418.6119,442.1506 420.0470,441.7354 C421.9764,441.1917 423.3546,440.6781 424.1685,440.2100 L424.3387,439.5831 C424.6666,438.3749 424.7193,437.5141 424.4988,436.9930 C424.2715,436.4794 423.6545,436.2226 422.6476,436.2226 C421.9654,436.2226 421.3771,436.4417 420.8757,436.8872 C420.3717,437.3252 419.8542,438.1031 419.3162,439.2131 Z Z M423.0741,444.2425 C422.5150,444.5069 421.6540,444.8240 420.4909,445.1939 C419.3325,445.5641 418.5381,445.9265 418.1190,446.2739 C417.4649,446.8554 417.0173,447.5802 416.7776,448.4638 C416.5399,449.3398 416.5364,450.0874 416.7633,450.7217 C416.9903,451.3562 417.4100,451.6733 418.0270,451.6733 C418.7139,451.6733 419.4731,451.3033 420.2985,450.5707 C420.9116,450.0043 421.4023,449.3248 421.7674,448.5091 C422.0083,447.9805 422.3342,446.9685 422.7378,445.4810 L423.0741,444.2425 Z Z M427.3788,455.4793 L436.1841,423.0376 L439.9984,423.0376 L436.8214,434.7426 C438.5924,432.5603 440.2816,431.4653 441.8963,431.4653 C443.6551,431.4653 444.8267,432.4998 445.4138,434.5765 C446.0010,436.6531 445.7667,439.6361 444.7111,443.5252 C443.6207,447.5425 442.1958,450.6386 440.4314,452.8136 C438.6692,454.9809 436.9449,456.0682 435.2697,456.0682 C434.4439,456.0682 433.7261,455.7208 433.1097,455.0337 C432.4956,454.3389 432.0748,453.3422 431.8513,452.0282 L430.9148,455.4793 L427.3788,455.4793 Z Z M434.4518,443.2684 C433.7897,445.7075 433.5345,447.5199 433.6920,448.6828 C433.9047,450.3442 434.5562,451.1749 435.6559,451.1749 C436.5004,451.1749 437.3795,450.5858 438.2980,449.4079 C439.2116,448.2297 440.0128,446.3721 440.6995,443.8423 C441.4311,441.1464 441.6564,439.2056 441.3815,438.0125 C441.1069,436.8193 440.5031,436.2226 439.5659,436.2226 C438.6470,436.2226 437.7281,436.8043 436.8048,437.9672 C435.8812,439.1301 435.0954,440.8971 434.4518,443.2684 Z Z M451.7957,428.7919 L453.3575,423.0376 L457.1718,423.0376 L455.6100,428.7919 L451.7957,428.7919 Z Z M444.5522,455.4793 L450.9349,431.9636 L454.7492,431.9636 L448.3665,455.4793 L444.5522,455.4793 Z Z M452.2875,455.4793 L461.0928,423.0376 L464.9071,423.0376 L456.1018,455.4793 L452.2875,455.4793 Z Z M467.2662,428.7919 L468.8281,423.0376 L472.6424,423.0376 L471.0805,428.7919 L467.2662,428.7919 Z Z M460.0228,455.4793 L466.4054,431.9636 L470.2195,431.9636 L463.8371,455.4793 L460.0228,455.4793 Z Z M481.0105,455.4793 L477.4747,455.4793 L478.4113,452.0282 C477.4573,453.3723 476.4839,454.3767 475.4966,455.0563 C474.5115,455.7285 473.6072,456.0682 472.7905,456.0682 C471.1248,456.0682 469.9952,454.9809 469.3998,452.7984 C468.8088,450.6160 469.0390,447.5802 470.0986,443.6761 C471.1807,439.6889 472.5800,436.6531 474.2992,434.5765 C476.0183,432.4998 477.7561,431.4653 479.5193,431.4653 C481.1340,431.4653 482.2382,432.5603 482.8245,434.7426 L486.0015,423.0376 L489.8158,423.0376 L481.0105,455.4793 Z Z M474.1348,443.2684 C473.4524,445.7831 473.1718,447.6030 473.2886,448.7281 C473.4632,450.3593 474.1001,451.1749 475.2044,451.1749 C476.0815,451.1749 476.9947,450.5632 477.9391,449.3398 C478.8883,448.1164 479.6886,446.2965 480.3486,443.8649 C481.0845,441.1539 481.3163,439.2056 481.0414,438.0125 C480.7667,436.8193 480.1676,436.2226 479.2351,436.2226 C478.3302,436.2226 477.4140,436.8118 476.4817,437.9897 C475.5541,439.1678 474.7703,440.9274 474.1348,443.2684 Z Z M492.0191,439.2131 L488.8374,438.2162 C489.8504,435.9208 490.9842,434.2215 492.2346,433.1190 C493.4853,432.0164 495.0502,431.4653 496.9248,431.4653 C498.6276,431.4653 499.8110,431.7899 500.4680,432.4469 C501.1202,433.1040 501.4840,433.9347 501.5482,434.9466 C501.6122,435.9583 501.2817,437.8085 500.5479,440.5119 L498.5246,447.7615 C497.9649,449.8231 497.6112,451.3486 497.4656,452.3303 C497.3197,453.3120 497.2622,454.3617 497.2929,455.4793 L493.5066,455.4793 C493.5198,455.0715 493.5584,454.4673 493.6320,453.6669 C493.6720,453.2969 493.6911,453.0552 493.6941,452.9420 C492.7616,453.9840 491.8545,454.7619 490.9706,455.2830 C490.0868,455.8039 489.2262,456.0682 488.3864,456.0682 C486.9062,456.0682 485.9150,455.4112 485.4178,454.0974 C484.9187,452.7909 484.9426,451.1296 485.4879,449.1208 C485.8467,447.7992 486.3633,446.6136 487.0358,445.5716 C487.7066,444.5369 488.4666,443.7365 489.3215,443.1853 C490.1720,442.6339 491.3147,442.1506 492.7498,441.7354 C494.6792,441.1917 496.0577,440.6781 496.8713,440.2100 L497.0416,439.5831 C497.3695,438.3749 497.4221,437.5141 497.2017,436.9930 C496.9743,436.4794 496.3573,436.2226 495.3505,436.2226 C494.6683,436.2226 494.0799,436.4417 493.5785,436.8872 C493.0745,437.3252 492.5570,438.1031 492.0191,439.2131 Z Z M495.7769,444.2425 C495.2178,444.5069 494.3568,444.8240 493.1937,445.1939 C492.0353,445.5641 491.2410,445.9265 490.8219,446.2739 C490.1677,446.8554 489.7203,447.5802 489.4804,448.4638 C489.2427,449.3398 489.2395,450.0874 489.4662,450.7217 C489.6931,451.3562 490.1128,451.6733 490.7298,451.6733 C491.4167,451.6733 492.1761,451.3033 493.0013,450.5707 C493.6145,450.0043 494.1051,449.3248 494.4702,448.5091 C494.7113,447.9805 495.0370,446.9685 495.4407,445.4810 L495.7769,444.2425 Z Z M513.5013,455.4793 L509.9653,455.4793 L510.9021,452.0282 C509.9478,453.3723 508.9747,454.3767 507.9874,455.0563 C507.0022,455.7285 506.0980,456.0682 505.2813,456.0682 C503.6156,456.0682 502.4860,454.9809 501.8904,452.7984 C501.2996,450.6160 501.5295,447.5802 502.5892,443.6761 C503.6715,439.6889 505.0708,436.6531 506.7899,434.5765 C508.5089,432.4998 510.2469,431.4653 512.0101,431.4653 C513.6248,431.4653 514.7290,432.5603 515.3153,434.7426 L518.4923,423.0376 L522.3066,423.0376 L513.5013,455.4793 Z Z M506.6256,443.2684 C505.9432,445.7831 505.6624,447.6030 505.7794,448.7281 C505.9539,450.3593 506.5908,451.1749 507.6952,451.1749 C508.5723,451.1749 509.4855,450.5632 510.4299,449.3398 C511.3791,448.1164 512.1793,446.2965 512.8392,443.8649 C513.5750,441.1539 513.8068,439.2056 513.5322,438.0125 C513.2575,436.8193 512.6584,436.2226 511.7257,436.2226 C510.8210,436.2226 509.9046,436.8118 508.9725,437.9897 C508.0449,439.1678 507.2611,440.9274 506.6256,443.2684 Z Z M527.6243,448.0485 L531.1558,449.0905 C530.0516,451.3637 528.8073,453.0930 527.4301,454.2861 C526.0504,455.4717 524.5659,456.0682 522.9837,456.0682 C520.4733,456.0682 518.9754,454.7316 518.4990,452.0585 C518.1299,449.9137 518.3858,447.2103 519.2734,443.9405 C520.3309,440.0439 521.7875,436.9855 523.6342,434.7804 C525.4830,432.5678 527.3644,431.4653 529.2762,431.4653 C531.4201,431.4653 532.8002,432.6206 533.4165,434.9314 C534.0283,437.2421 533.6609,440.7840 532.3099,445.5566 L522.7603,445.5566 C522.2879,447.3990 522.2048,448.8339 522.5155,449.8609 C522.8214,450.8879 523.4150,451.4015 524.2874,451.4015 C524.8861,451.4015 525.4588,451.1371 526.0061,450.6085 C526.5579,450.0799 527.0959,449.2266 527.6243,448.0485 Z Z M529.5565,441.7504 C530.0185,439.9457 530.1085,438.5714 529.8198,437.6348 C529.5330,436.6909 529.0013,436.2226 528.2216,436.2226 C527.3911,436.2226 526.5689,436.7212 525.7577,437.7104 C524.9462,438.6996 524.3148,440.0514 523.8630,441.7504 L529.5565,441.7504 Z Z M550.8439,448.0485 L554.3754,449.0905 C553.2713,451.3637 552.0269,453.0930 550.6497,454.2861 C549.2700,455.4717 547.7856,456.0682 546.2034,456.0682 C543.6929,456.0682 542.1950,454.7316 541.7186,452.0585 C541.3495,449.9137 541.6055,447.2103 542.4931,443.9405 C543.5505,440.0439 545.0072,436.9855 546.8539,434.7804 C548.7026,432.5678 550.5841,431.4653 552.4958,431.4653 C554.6395,431.4653 556.0198,432.6206 556.6362,434.9314 C557.2479,437.2421 556.8806,440.7840 555.5296,445.5566 L545.9799,445.5566 C545.5075,447.3990 545.4245,448.8339 545.7351,449.8609 C546.0410,450.8879 546.6347,451.4015 547.5070,451.4015 C548.1057,451.4015 548.6785,451.1371 549.2258,450.6085 C549.7775,450.0799 550.3155,449.2266 550.8439,448.0485 Z Z M552.7762,441.7504 C553.2381,439.9457 553.3281,438.5714 553.0395,437.6348 C552.7526,436.6909 552.2209,436.2226 551.4412,436.2226 C550.6107,436.2226 549.7885,436.7212 548.9773,437.7104 C548.1659,438.6996 547.5345,440.0514 547.0826,441.7504 L552.7762,441.7504 Z Z M563.8335,455.4793 L572.5651,423.3095 L576.6022,423.3095 L569.3586,449.9968 L579.3536,449.9968 L577.8657,455.4793 L563.8335,455.4793 Z Z M583.0789,443.4346 C583.6407,441.3654 584.4945,439.3641 585.6458,437.4310 C586.7990,435.4903 588.0850,434.0176 589.5077,432.9981 C590.9306,431.9787 592.3460,431.4653 593.7614,431.4653 C595.9468,431.4653 597.4197,432.6206 598.1893,434.9314 C598.9568,437.2498 598.8615,440.1647 597.9022,443.6987 C596.9348,447.2631 595.4281,450.2158 593.3868,452.5568 C591.3408,454.8978 589.2505,456.0682 587.1114,456.0682 C585.7889,456.0682 584.6601,455.5774 583.7225,454.6032 C582.7898,453.6291 582.2632,452.2019 582.1491,450.3140 C582.0329,448.4337 582.3451,446.1380 583.0789,443.4346 Z Z M586.9146,443.7667 C586.2811,446.1002 586.1340,447.8899 586.4753,449.1283 C586.8193,450.3745 587.4865,450.9937 588.4842,450.9937 C589.4770,450.9937 590.4804,450.3745 591.4915,449.1283 C592.5004,447.8899 593.3291,446.0850 593.9707,443.7214 C594.5958,441.4182 594.7386,439.6436 594.4020,438.4052 C594.0674,437.1592 593.4002,436.5400 592.4072,436.5400 C591.4095,436.5400 590.4061,437.1592 589.3858,438.4052 C588.3722,439.6436 587.5478,441.4333 586.9146,443.7667 Z Z M596.9392,456.9745 L601.0768,457.8353 C600.9234,458.6735 600.9348,459.2475 601.1085,459.5646 C601.3541,460.0103 601.8634,460.2368 602.6429,460.2368 C603.6406,460.2368 604.4533,459.9951 605.0877,459.5042 C605.5099,459.1796 605.9065,458.6585 606.2750,457.9336 C606.5304,457.4200 606.8510,456.4609 607.2260,455.0790 L608.1772,451.6430 C606.3317,454.2030 604.5374,455.4793 602.7927,455.4793 C600.8531,455.4793 599.6754,454.1427 599.2666,451.4768 C598.9475,449.3701 599.2154,446.7420 600.0661,443.6081 C601.1359,439.6662 602.5365,436.6607 604.2647,434.5840 C605.9930,432.5073 607.7284,431.4653 609.4638,431.4653 C611.2502,431.4653 612.3795,432.7415 612.8466,435.2938 L613.7506,431.9636 L617.3142,431.9636 L611.5917,453.0477 C610.8394,455.8191 610.1366,457.8958 609.4825,459.2627 C608.8311,460.6371 608.1455,461.7093 607.4220,462.4947 C606.7051,463.2724 605.8595,463.8917 604.8917,464.3297 C603.9214,464.7752 602.7902,464.9942 601.4955,464.9942 C599.0456,464.9942 597.4965,464.3071 596.8421,462.9403 C596.1896,461.5659 596.1485,459.8366 596.7204,457.7297 C596.7757,457.5257 596.8501,457.2689 596.9392,456.9745 Z Z M604.0900,443.2456 C603.4137,445.7378 603.2166,447.5577 603.4923,448.7131 C603.7727,449.8684 604.3480,450.4499 605.2157,450.4499 C606.1438,450.4499 607.0945,449.8534 608.0567,448.6678 C609.0235,447.4821 609.8191,445.7301 610.4505,443.4043 C611.1104,440.9727 611.2940,439.1678 610.9966,437.9897 C610.7039,436.8118 610.0842,436.2226 609.1422,436.2226 C608.2282,436.2226 607.3186,436.8043 606.4111,437.9597 C605.5081,439.1150 604.7336,440.8746 604.0900,443.2456 Z Z M614.7134,455.4793 L621.0960,431.9636 L624.9104,431.9636 L618.5277,455.4793 L614.7134,455.4793 Z Z M621.2797,428.9278 L624.9683,422.3128 L629.2281,422.3128 L623.6739,428.9278 L621.2797,428.9278 Z Z M622.8800,448.8640 L626.9803,447.9126 C626.8168,449.1133 626.8983,450.0271 627.2314,450.6463 C627.5577,451.2731 628.1743,451.5827 629.0700,451.5827 C630.0582,451.5827 630.8806,451.2881 631.5417,450.6991 C631.9886,450.2837 632.3072,449.7250 632.4957,449.0302 C632.6229,448.5621 632.6367,448.1694 632.5396,447.8598 C632.4295,447.5652 632.0782,447.2859 631.4870,447.0366 C628.7027,445.9265 627.0238,444.9146 626.4458,444.0008 C625.6460,442.7245 625.5550,440.9575 626.1677,438.6996 C626.7231,436.6531 627.6849,434.9389 629.0505,433.5495 C630.4160,432.1599 632.1357,431.4653 634.2099,431.4653 C636.1867,431.4653 637.5143,431.9939 638.1898,433.0434 C638.8633,434.1007 639.1047,435.6564 638.9072,437.7179 L635.0204,438.8054 C635.1173,437.8841 635.0130,437.1742 634.7148,436.6834 C634.4166,436.1926 633.8650,435.9508 633.0621,435.9508 C632.0506,435.9508 631.2654,436.1773 630.6994,436.6381 C630.3191,436.9628 630.0602,437.3857 629.9209,437.8991 C629.8000,438.3446 629.8227,438.7223 629.9940,439.0319 C630.2293,439.4472 631.2639,440.0286 633.1007,440.7840 C634.9373,441.5391 636.1119,442.4602 636.6221,443.5553 C637.1255,444.6578 637.1046,446.2059 636.5674,448.1844 C635.9833,450.3367 634.9269,452.1944 633.3977,453.7425 C631.8732,455.2905 630.0241,456.0682 627.8525,456.0682 C625.8849,456.0682 624.5022,455.4189 623.7018,454.1274 C622.9062,452.8362 622.6301,451.0843 622.8800,448.8640 Z Z M650.9141,431.9636 L649.5736,436.9024 L646.9565,436.9024 L644.3720,446.4249 C643.8472,448.3581 643.5650,449.4832 643.5299,449.8006 C643.4949,450.1177 643.5345,450.3820 643.6583,450.5933 C643.7791,450.7973 643.9638,450.9029 644.2190,450.9029 C644.5763,450.9029 645.1401,450.7067 645.9214,450.3064 L644.9300,455.1394 C643.8756,455.7586 642.7891,456.0682 641.6663,456.0682 C640.9796,456.0682 640.4136,455.8795 639.9640,455.5020 C639.5142,455.1243 639.2438,454.6335 639.1506,454.0368 C639.0547,453.4328 639.0975,452.6247 639.2743,451.5977 C639.3921,450.8728 639.7481,449.4079 640.3486,447.1953 L643.1422,436.9024 L641.3882,436.9024 L642.7286,431.9636 L644.4827,431.9636 L645.7494,427.2967 L650.5598,423.6266 L648.2970,431.9636 L650.9141,431.9636 Z Z M654.4476,428.7919 L656.0095,423.0376 L659.8236,423.0376 L658.2619,428.7919 L654.4476,428.7919 Z Z M647.2042,455.4793 L653.5868,431.9636 L657.4009,431.9636 L651.0183,455.4793 L647.2042,455.4793 Z Z M672.0123,438.9413 L667.9587,440.0286 C668.1633,438.8129 668.1239,437.8991 667.8417,437.2799 C667.5577,436.6682 667.0615,436.3586 666.3470,436.3586 C665.3958,436.3586 664.4894,436.8949 663.6320,437.9672 C662.7749,439.0394 662.0061,440.8293 661.3237,443.3438 C660.5653,446.1380 660.3179,448.1089 660.5798,449.2642 C660.8416,450.4198 661.4560,450.9937 662.4212,450.9937 C663.1451,450.9937 663.8313,450.6538 664.4731,449.9818 C665.1196,449.3095 665.7579,448.1542 666.3950,446.5080 L669.8706,447.5502 C668.7185,450.3593 667.3953,452.4812 665.9017,453.9162 C664.4079,455.3509 662.7328,456.0682 660.8721,456.0682 C658.7656,456.0682 657.3764,454.9809 656.7116,452.8136 C656.0444,450.6386 656.2338,447.6333 657.2770,443.7895 C658.3326,439.9004 659.7836,436.8797 661.6293,434.7124 C663.4750,432.5451 665.4712,431.4653 667.6196,431.4653 C669.3735,431.4653 670.6022,432.0845 671.3074,433.3154 C672.0081,434.5462 672.2421,436.4191 672.0123,438.9413 Z Z M677.6784,439.2131 L674.4968,438.2162 C675.5097,435.9208 676.6435,434.2215 677.8942,433.1190 C679.1446,432.0164 680.7096,431.4653 682.5843,431.4653 C684.2872,431.4653 685.4704,431.7899 686.1274,432.4469 C686.7795,433.1040 687.1434,433.9347 687.2076,434.9466 C687.2716,435.9583 686.9410,437.8085 686.2074,440.5119 L684.1840,447.7615 C683.6245,449.8231 683.2706,451.3486 683.1249,452.3303 C682.9790,453.3120 682.9215,454.3617 682.9524,455.4793 L679.1660,455.4793 C679.1792,455.0715 679.2178,454.4673 679.2913,453.6669 C679.3313,453.2969 679.3506,453.0552 679.3535,452.9420 C678.4210,453.9840 677.5139,454.7619 676.6299,455.2830 C675.7462,455.8039 674.8856,456.0682 674.0457,456.0682 C672.5655,456.0682 671.5745,455.4112 671.0772,454.0974 C670.5782,452.7909 670.6020,451.1296 671.1473,449.1208 C671.5061,447.7992 672.0227,446.6136 672.6953,445.5716 C673.3660,444.5369 674.1262,443.7365 674.9811,443.1853 C675.8313,442.6339 676.9741,442.1506 678.4092,441.7354 C680.3386,441.1917 681.7170,440.6781 682.5307,440.2100 L682.7009,439.5831 C683.0288,438.3749 683.0814,437.5141 682.8610,436.9930 C682.6339,436.4794 682.0167,436.2226 681.0098,436.2226 C680.3278,436.2226 679.7395,436.4417 679.2379,436.8872 C678.7338,437.3252 678.2164,438.1031 677.6784,439.2131 Z Z M681.4363,444.2425 C680.8774,444.5069 680.0162,444.8240 678.8533,445.1939 C677.6949,445.5641 676.9005,445.9265 676.4814,446.2739 C675.8270,446.8554 675.3797,447.5802 675.1400,448.4638 C674.9021,449.3398 674.8988,450.0874 675.1255,450.7217 C675.3525,451.3562 675.7722,451.6733 676.3894,451.6733 C677.0761,451.6733 677.8355,451.3033 678.6607,450.5707 C679.2738,450.0043 679.7645,449.3248 680.1297,448.5091 C680.3707,447.9805 680.6964,446.9685 681.1000,445.4810 L681.4363,444.2425 Z"
         style="fill-rule: evenodd; fill: #ffffff; "
         id="path16" />
      <path
         d="  M312.9910,314.4653 L312.9910,225.6038 L334.9513,225.6038 C339.0216,225.6038 342.1388,226.3279 344.2834,227.7965 C346.4377,229.2444 348.1749,231.9542 349.4954,235.8843 C350.8158,239.8349 351.4709,244.6544 351.4709,250.3221 C351.4709,255.2451 350.9647,259.5061 349.9519,263.0846 C348.9493,266.6837 347.5595,269.5796 345.7823,271.8135 C344.6606,273.2200 343.1118,274.3991 341.1560,275.3298 C342.7247,276.4262 343.8663,277.5018 344.5810,278.5980 C345.0576,279.3221 345.7626,280.8941 346.6857,283.2727 C347.5991,285.6515 348.2147,287.4925 348.5225,288.7956 L354.9259,314.4653 L340.0343,314.4653 L332.9955,287.3684 C332.1020,283.8519 331.3076,281.5767 330.6128,280.5217 C329.6598,279.1565 328.5776,278.4739 327.3763,278.4739 L326.2148,278.4739 L326.2148,314.4653 L312.9910,314.4653 Z Z M326.2148,261.7194 L331.7842,261.7194 C332.3799,261.7194 333.5513,261.3057 335.2788,260.4990 C336.1526,260.1473 336.8673,259.2164 337.4134,257.7066 C337.9692,256.1965 338.2471,254.4798 338.2471,252.5354 C338.2471,249.6603 337.8103,247.4468 336.9368,245.9162 C336.0632,244.3649 334.4251,243.5996 332.0126,243.5996 L326.2148,243.5996 L326.2148,261.7194 Z Z M385.3840,299.8206 L370.4527,299.8206 L368.3083,314.4653 L354.8564,314.4653 L370.9094,225.6038 L385.3345,225.6038 L401.3182,314.4653 L387.5184,314.4653 L385.3840,299.8206 Z Z M382.5945,280.5837 L377.9383,248.6467 L373.2624,280.5837 L382.5945,280.5837 Z Z M383.9248,203.5127 L388.5113,203.5127 C388.5312,204.5675 388.5411,205.4777 388.5411,206.2430 C388.5411,210.7316 387.9950,214.2273 386.9130,216.6888 C385.8308,219.1503 384.4310,220.3914 382.7332,220.3914 C381.4923,220.3914 379.6160,219.3364 377.0943,217.2266 C375.5656,215.9442 374.5132,215.3028 373.9275,215.3028 C373.3715,215.3028 372.9347,215.6752 372.6269,216.3993 C372.3191,217.1231 372.1505,218.4057 372.1306,220.2672 L367.6036,220.2672 C367.5837,219.2951 367.5737,218.4469 367.5737,217.7024 C367.5737,213.3586 368.1495,209.9043 369.2912,207.3599 C370.4330,204.7951 371.7832,203.5127 373.3518,203.5127 C374.0267,203.5127 374.6721,203.6781 375.2677,203.9883 C375.8734,204.3193 376.9753,205.1882 378.5935,206.5946 C380.2116,208.0218 381.3930,208.7252 382.1278,208.7252 C382.6440,208.7252 383.0709,208.3528 383.3886,207.6082 C383.7062,206.8636 383.8849,205.4984 383.9248,203.5127 Z Z M403.8099,270.0966 C403.8099,255.5968 405.7458,244.3028 409.6276,236.2357 C413.5094,228.1482 418.9099,224.1147 425.8395,224.1147 C432.9378,224.1147 438.4081,228.0860 442.2500,236.0082 C446.0922,243.9513 448.0082,255.0795 448.0082,269.3728 C448.0082,279.7564 447.1742,288.2578 445.4965,294.8976 C443.8186,301.5373 441.3864,306.7085 438.2194,310.4110 C435.0426,314.1136 431.0913,315.9546 426.3559,315.9546 C421.5508,315.9546 417.5697,314.3619 414.4128,311.1763 C411.2657,307.9703 408.7042,302.9232 406.7484,296.0146 C404.7928,289.1265 403.8099,280.4803 403.8099,270.0966 Z Z M416.9740,270.1588 C416.9740,279.1152 417.7781,285.5688 419.3766,289.4782 C420.9850,293.3876 423.1689,295.3527 425.9289,295.3527 C428.7583,295.3527 430.9623,293.4290 432.5110,289.6023 C434.0696,285.7549 434.8441,278.8877 434.8441,268.9382 C434.8441,260.5817 434.0298,254.4798 432.4117,250.6324 C430.7835,246.7642 428.5894,244.8407 425.8098,244.8407 C423.1490,244.8407 421.0047,246.8057 419.3965,250.7151 C417.7781,254.6244 416.9740,261.1194 416.9740,270.1588 Z"
         style="fill-rule: evenodd; fill: #009933; "
         id="path18" />
      <path
         d="  M259.6673,321.5590 L444.8761,321.5590 L444.8761,324.2063 L259.6673,324.2063 L259.6673,321.5590 Z"
         style="fill-rule: evenodd; fill: #009933; "
         id="path20" />
      <path
         d="  M233.2996,267.9254 L233.2996,234.2899 L301.8423,234.2899 L301.8423,303.2560 C288.7357,313.3129 277.1336,320.2058 267.0360,323.8217 C256.9385,327.4752 244.9687,329.2833 231.1264,329.2833 C214.0743,329.2833 200.1986,326.0062 189.4658,319.4524 C178.6995,312.9362 170.3742,303.1808 164.4895,290.2238 C158.5714,277.2665 155.5956,262.4263 155.5956,245.6649 C155.5956,227.9998 158.8388,212.6322 165.2921,199.5622 C171.7783,186.5297 181.2406,176.6237 193.7121,169.8438 C203.4418,164.6083 216.5485,162.0092 232.9988,162.0092 C248.8473,162.0092 260.7168,163.6288 268.6076,166.8680 C276.4649,170.1075 282.9847,175.1168 288.2007,181.9343 C293.3833,188.7142 297.2951,197.3398 299.9031,207.8110 L257.1056,216.3987 C255.3335,210.2968 252.3245,205.6262 248.1114,202.3870 C243.9321,199.1479 238.5492,197.5280 232.0289,197.5280 C222.2994,197.5280 214.5425,201.3324 208.7580,208.9409 C202.9736,216.5869 200.0647,228.6023 200.0647,245.1000 C200.0647,262.6148 203.0071,275.1196 208.8583,282.6153 C214.6762,290.1108 222.8343,293.8773 233.2996,293.8773 C238.2480,293.8773 242.9959,293.0487 247.4763,291.4291 C251.9900,289.8095 257.1726,287.0598 262.9570,283.1803 L262.9570,267.9254 L233.2996,267.9254 Z"
         style="fill-rule: evenodd; fill: #009933; "
         id="path22" />
      <path
         d="  M468.8775,162.0104 C468.6300,162.2313 468.4307,163.2249 468.2726,165.0464 C467.8950,170.5667 467.3865,176.1970 466.7475,181.9379 C466.4383,184.6427 466.0810,186.8509 465.6755,188.5621 C465.2769,190.2733 464.8163,191.1566 464.3145,191.1566 L450.8467,191.1566 C450.7437,191.1566 450.6474,191.9845 450.5720,193.5854 C450.4965,195.0757 450.4552,196.3455 450.4552,197.4494 L450.4585,244.7566 C450.4585,247.0200 450.7130,248.1240 451.2217,248.1240 L460.0969,248.1240 L460.1036,351.1842 L451.0151,351.1842 C450.9326,351.1842 450.8296,351.4048 450.6990,351.9570 C450.5684,352.6193 450.5066,353.4474 450.5068,354.5514 L450.5101,405.7226 C450.5101,406.3851 450.5513,407.2682 450.6271,408.4827 C450.7027,409.7523 450.7923,410.4148 450.9022,410.4148 L489.1740,410.4148 C489.4696,410.4148 489.6346,409.3108 489.6620,407.1579 L489.6586,354.8825 C489.6309,352.6193 489.4658,351.3498 489.1702,351.1842 L480.3429,351.1842 L480.3309,165.4328 C480.3309,163.3352 480.1453,162.2313 479.7672,162.0104 L468.8775,162.0104 Z Z M527.3496,410.4148 C529.2471,410.4148 531.5637,408.0963 534.3133,403.4594 C537.0630,398.8225 539.7781,391.6463 542.4654,381.9311 C545.1872,371.8292 547.4481,358.4707 549.2483,341.8552 C551.0897,325.3501 552.0233,305.2569 552.0493,281.5204 C552.0204,259.7162 551.2423,241.2239 549.7152,225.8779 C548.2085,210.6976 546.2141,198.3326 543.7179,188.8382 C538.5264,170.7322 532.9846,161.7896 527.1068,162.0104 L520.7957,162.0104 C511.3567,162.8936 504.4621,176.8042 500.1259,203.7423 C495.7416,230.0180 493.5710,257.9497 493.6003,287.4821 C493.6783,324.3565 496.2377,353.8891 501.2646,375.9694 C506.2158,398.7122 512.6238,410.1939 520.4885,410.4148 L527.3496,410.4148 Z Z M522.8003,223.2283 C525.3507,223.6699 527.3106,230.5148 528.6933,243.8182 C530.0415,256.8456 530.7300,271.0876 530.7653,286.5437 C530.7320,303.8218 530.0181,318.5051 528.6094,330.5943 C527.2078,343.1800 525.2559,349.6386 522.7672,349.8592 C520.9798,349.6386 519.2950,343.6769 517.7199,332.0294 C516.0487,320.7132 515.1814,305.5330 515.1182,286.5437 C515.1172,268.4378 515.8106,253.4232 517.1848,241.5550 C518.5108,229.5764 520.3803,223.4491 522.8003,223.2283 Z Z M590.1302,410.4148 C592.0275,410.4148 594.3441,408.0963 597.0938,403.4594 C599.8434,398.8225 602.5584,391.6463 605.2458,381.9311 C607.9677,371.8292 610.2287,358.4707 612.0287,341.8552 C613.8701,325.3501 614.8038,305.2569 614.8298,281.5204 C614.8008,259.7162 614.0229,241.2239 612.4955,225.8779 C610.9891,210.6976 608.9945,198.3326 606.4985,188.8382 C601.3067,170.7322 595.7652,161.7896 589.8872,162.0104 L583.5763,162.0104 C574.1371,162.8936 567.2427,176.8042 562.9065,203.7423 C558.5221,230.0180 556.3514,257.9497 556.3808,287.4821 C556.4588,324.3565 559.0180,353.8891 564.0450,375.9694 C568.9964,398.7122 575.4044,410.1939 583.2691,410.4148 L590.1302,410.4148 Z Z M585.5806,223.2283 C588.1313,223.6699 590.0910,230.5148 591.4737,243.8182 C592.8220,256.8456 593.5103,271.0876 593.5457,286.5437 C593.5126,303.8218 592.7985,318.5051 591.3900,330.5943 C589.9884,343.1800 588.0362,349.6386 585.5475,349.8592 C583.7601,349.6386 582.0755,343.6769 580.5004,332.0294 C578.8291,320.7132 577.9618,305.5330 577.8988,286.5437 C577.8976,268.4378 578.5909,253.4232 579.9651,241.5550 C581.2911,229.5764 583.1608,223.4491 585.5806,223.2283 Z Z M652.9105,410.4148 C654.8080,410.4148 657.1246,408.0963 659.8742,403.4594 C662.6237,398.8225 665.3390,391.6463 668.0263,381.9311 C670.7481,371.8292 673.0090,358.4707 674.8092,341.8552 C676.6504,325.3501 677.5842,305.2569 677.6102,281.5204 C677.5813,259.7162 676.8032,241.2239 675.2761,225.8779 C673.7694,210.6976 671.7750,198.3326 669.2788,188.8382 C664.0873,170.7322 658.5455,161.7896 652.6677,162.0104 L646.3566,162.0104 C636.9177,162.8936 630.0230,176.8042 625.6868,203.7423 C621.3025,230.0180 619.1317,257.9497 619.1612,287.4821 C619.2392,324.3565 621.7986,353.8891 626.8253,375.9694 C631.7767,398.7122 638.1848,410.1939 646.0494,410.4148 L652.9105,410.4148 Z Z M648.3612,223.2283 C650.9116,223.6699 652.8715,230.5148 654.2542,243.8182 C655.6024,256.8456 656.2909,271.0876 656.3262,286.5437 C656.2929,303.8218 655.5790,318.5051 654.1703,330.5943 C652.7687,343.1800 650.8168,349.6386 648.3281,349.8592 C646.5407,349.6386 644.8559,343.6769 643.2808,332.0294 C641.6094,320.7132 640.7423,305.5330 640.6791,286.5437 C640.6781,268.4378 641.3715,253.4232 642.7457,241.5550 C644.0717,229.5764 645.9412,223.4491 648.3612,223.2283 Z"
         style="fill-rule: evenodd; fill: #009933; "
         id="path24" />
    </g>
  </g>
</svg>
